%TF.GenerationSoftware,KiCad,Pcbnew,7.0.0-1.fc36*%
%TF.CreationDate,2023-03-13T21:20:08-05:00*%
%TF.ProjectId,2275Mod,32323735-4d6f-4642-9e6b-696361645f70,rev?*%
%TF.SameCoordinates,Original*%
%TF.FileFunction,Legend,Top*%
%TF.FilePolarity,Positive*%
%FSLAX46Y46*%
G04 Gerber Fmt 4.6, Leading zero omitted, Abs format (unit mm)*
G04 Created by KiCad (PCBNEW 7.0.0-1.fc36) date 2023-03-13 21:20:08*
%MOMM*%
%LPD*%
G01*
G04 APERTURE LIST*
%ADD10C,0.150000*%
%ADD11C,0.120000*%
%ADD12C,0.127000*%
%ADD13C,0.200000*%
%ADD14C,0.152400*%
G04 APERTURE END LIST*
D10*
%TO.C,R202*%
X182649952Y-87871380D02*
X182316619Y-87395190D01*
X182078524Y-87871380D02*
X182078524Y-86871380D01*
X182078524Y-86871380D02*
X182459476Y-86871380D01*
X182459476Y-86871380D02*
X182554714Y-86919000D01*
X182554714Y-86919000D02*
X182602333Y-86966619D01*
X182602333Y-86966619D02*
X182649952Y-87061857D01*
X182649952Y-87061857D02*
X182649952Y-87204714D01*
X182649952Y-87204714D02*
X182602333Y-87299952D01*
X182602333Y-87299952D02*
X182554714Y-87347571D01*
X182554714Y-87347571D02*
X182459476Y-87395190D01*
X182459476Y-87395190D02*
X182078524Y-87395190D01*
X183030905Y-86966619D02*
X183078524Y-86919000D01*
X183078524Y-86919000D02*
X183173762Y-86871380D01*
X183173762Y-86871380D02*
X183411857Y-86871380D01*
X183411857Y-86871380D02*
X183507095Y-86919000D01*
X183507095Y-86919000D02*
X183554714Y-86966619D01*
X183554714Y-86966619D02*
X183602333Y-87061857D01*
X183602333Y-87061857D02*
X183602333Y-87157095D01*
X183602333Y-87157095D02*
X183554714Y-87299952D01*
X183554714Y-87299952D02*
X182983286Y-87871380D01*
X182983286Y-87871380D02*
X183602333Y-87871380D01*
X184221381Y-86871380D02*
X184316619Y-86871380D01*
X184316619Y-86871380D02*
X184411857Y-86919000D01*
X184411857Y-86919000D02*
X184459476Y-86966619D01*
X184459476Y-86966619D02*
X184507095Y-87061857D01*
X184507095Y-87061857D02*
X184554714Y-87252333D01*
X184554714Y-87252333D02*
X184554714Y-87490428D01*
X184554714Y-87490428D02*
X184507095Y-87680904D01*
X184507095Y-87680904D02*
X184459476Y-87776142D01*
X184459476Y-87776142D02*
X184411857Y-87823761D01*
X184411857Y-87823761D02*
X184316619Y-87871380D01*
X184316619Y-87871380D02*
X184221381Y-87871380D01*
X184221381Y-87871380D02*
X184126143Y-87823761D01*
X184126143Y-87823761D02*
X184078524Y-87776142D01*
X184078524Y-87776142D02*
X184030905Y-87680904D01*
X184030905Y-87680904D02*
X183983286Y-87490428D01*
X183983286Y-87490428D02*
X183983286Y-87252333D01*
X183983286Y-87252333D02*
X184030905Y-87061857D01*
X184030905Y-87061857D02*
X184078524Y-86966619D01*
X184078524Y-86966619D02*
X184126143Y-86919000D01*
X184126143Y-86919000D02*
X184221381Y-86871380D01*
X184935667Y-86966619D02*
X184983286Y-86919000D01*
X184983286Y-86919000D02*
X185078524Y-86871380D01*
X185078524Y-86871380D02*
X185316619Y-86871380D01*
X185316619Y-86871380D02*
X185411857Y-86919000D01*
X185411857Y-86919000D02*
X185459476Y-86966619D01*
X185459476Y-86966619D02*
X185507095Y-87061857D01*
X185507095Y-87061857D02*
X185507095Y-87157095D01*
X185507095Y-87157095D02*
X185459476Y-87299952D01*
X185459476Y-87299952D02*
X184888048Y-87871380D01*
X184888048Y-87871380D02*
X185507095Y-87871380D01*
%TO.C,R204*%
X182649952Y-94981380D02*
X182316619Y-94505190D01*
X182078524Y-94981380D02*
X182078524Y-93981380D01*
X182078524Y-93981380D02*
X182459476Y-93981380D01*
X182459476Y-93981380D02*
X182554714Y-94029000D01*
X182554714Y-94029000D02*
X182602333Y-94076619D01*
X182602333Y-94076619D02*
X182649952Y-94171857D01*
X182649952Y-94171857D02*
X182649952Y-94314714D01*
X182649952Y-94314714D02*
X182602333Y-94409952D01*
X182602333Y-94409952D02*
X182554714Y-94457571D01*
X182554714Y-94457571D02*
X182459476Y-94505190D01*
X182459476Y-94505190D02*
X182078524Y-94505190D01*
X183030905Y-94076619D02*
X183078524Y-94029000D01*
X183078524Y-94029000D02*
X183173762Y-93981380D01*
X183173762Y-93981380D02*
X183411857Y-93981380D01*
X183411857Y-93981380D02*
X183507095Y-94029000D01*
X183507095Y-94029000D02*
X183554714Y-94076619D01*
X183554714Y-94076619D02*
X183602333Y-94171857D01*
X183602333Y-94171857D02*
X183602333Y-94267095D01*
X183602333Y-94267095D02*
X183554714Y-94409952D01*
X183554714Y-94409952D02*
X182983286Y-94981380D01*
X182983286Y-94981380D02*
X183602333Y-94981380D01*
X184221381Y-93981380D02*
X184316619Y-93981380D01*
X184316619Y-93981380D02*
X184411857Y-94029000D01*
X184411857Y-94029000D02*
X184459476Y-94076619D01*
X184459476Y-94076619D02*
X184507095Y-94171857D01*
X184507095Y-94171857D02*
X184554714Y-94362333D01*
X184554714Y-94362333D02*
X184554714Y-94600428D01*
X184554714Y-94600428D02*
X184507095Y-94790904D01*
X184507095Y-94790904D02*
X184459476Y-94886142D01*
X184459476Y-94886142D02*
X184411857Y-94933761D01*
X184411857Y-94933761D02*
X184316619Y-94981380D01*
X184316619Y-94981380D02*
X184221381Y-94981380D01*
X184221381Y-94981380D02*
X184126143Y-94933761D01*
X184126143Y-94933761D02*
X184078524Y-94886142D01*
X184078524Y-94886142D02*
X184030905Y-94790904D01*
X184030905Y-94790904D02*
X183983286Y-94600428D01*
X183983286Y-94600428D02*
X183983286Y-94362333D01*
X183983286Y-94362333D02*
X184030905Y-94171857D01*
X184030905Y-94171857D02*
X184078524Y-94076619D01*
X184078524Y-94076619D02*
X184126143Y-94029000D01*
X184126143Y-94029000D02*
X184221381Y-93981380D01*
X185411857Y-94314714D02*
X185411857Y-94981380D01*
X185173762Y-93933761D02*
X184935667Y-94648047D01*
X184935667Y-94648047D02*
X185554714Y-94648047D01*
%TO.C,C2*%
X141946333Y-74821142D02*
X141898714Y-74868761D01*
X141898714Y-74868761D02*
X141755857Y-74916380D01*
X141755857Y-74916380D02*
X141660619Y-74916380D01*
X141660619Y-74916380D02*
X141517762Y-74868761D01*
X141517762Y-74868761D02*
X141422524Y-74773523D01*
X141422524Y-74773523D02*
X141374905Y-74678285D01*
X141374905Y-74678285D02*
X141327286Y-74487809D01*
X141327286Y-74487809D02*
X141327286Y-74344952D01*
X141327286Y-74344952D02*
X141374905Y-74154476D01*
X141374905Y-74154476D02*
X141422524Y-74059238D01*
X141422524Y-74059238D02*
X141517762Y-73964000D01*
X141517762Y-73964000D02*
X141660619Y-73916380D01*
X141660619Y-73916380D02*
X141755857Y-73916380D01*
X141755857Y-73916380D02*
X141898714Y-73964000D01*
X141898714Y-73964000D02*
X141946333Y-74011619D01*
X142327286Y-74011619D02*
X142374905Y-73964000D01*
X142374905Y-73964000D02*
X142470143Y-73916380D01*
X142470143Y-73916380D02*
X142708238Y-73916380D01*
X142708238Y-73916380D02*
X142803476Y-73964000D01*
X142803476Y-73964000D02*
X142851095Y-74011619D01*
X142851095Y-74011619D02*
X142898714Y-74106857D01*
X142898714Y-74106857D02*
X142898714Y-74202095D01*
X142898714Y-74202095D02*
X142851095Y-74344952D01*
X142851095Y-74344952D02*
X142279667Y-74916380D01*
X142279667Y-74916380D02*
X142898714Y-74916380D01*
%TO.C,C3*%
X191984333Y-96030142D02*
X191936714Y-96077761D01*
X191936714Y-96077761D02*
X191793857Y-96125380D01*
X191793857Y-96125380D02*
X191698619Y-96125380D01*
X191698619Y-96125380D02*
X191555762Y-96077761D01*
X191555762Y-96077761D02*
X191460524Y-95982523D01*
X191460524Y-95982523D02*
X191412905Y-95887285D01*
X191412905Y-95887285D02*
X191365286Y-95696809D01*
X191365286Y-95696809D02*
X191365286Y-95553952D01*
X191365286Y-95553952D02*
X191412905Y-95363476D01*
X191412905Y-95363476D02*
X191460524Y-95268238D01*
X191460524Y-95268238D02*
X191555762Y-95173000D01*
X191555762Y-95173000D02*
X191698619Y-95125380D01*
X191698619Y-95125380D02*
X191793857Y-95125380D01*
X191793857Y-95125380D02*
X191936714Y-95173000D01*
X191936714Y-95173000D02*
X191984333Y-95220619D01*
X192317667Y-95125380D02*
X192936714Y-95125380D01*
X192936714Y-95125380D02*
X192603381Y-95506333D01*
X192603381Y-95506333D02*
X192746238Y-95506333D01*
X192746238Y-95506333D02*
X192841476Y-95553952D01*
X192841476Y-95553952D02*
X192889095Y-95601571D01*
X192889095Y-95601571D02*
X192936714Y-95696809D01*
X192936714Y-95696809D02*
X192936714Y-95934904D01*
X192936714Y-95934904D02*
X192889095Y-96030142D01*
X192889095Y-96030142D02*
X192841476Y-96077761D01*
X192841476Y-96077761D02*
X192746238Y-96125380D01*
X192746238Y-96125380D02*
X192460524Y-96125380D01*
X192460524Y-96125380D02*
X192365286Y-96077761D01*
X192365286Y-96077761D02*
X192317667Y-96030142D01*
%TO.C,R201*%
X172513452Y-88980380D02*
X172180119Y-88504190D01*
X171942024Y-88980380D02*
X171942024Y-87980380D01*
X171942024Y-87980380D02*
X172322976Y-87980380D01*
X172322976Y-87980380D02*
X172418214Y-88028000D01*
X172418214Y-88028000D02*
X172465833Y-88075619D01*
X172465833Y-88075619D02*
X172513452Y-88170857D01*
X172513452Y-88170857D02*
X172513452Y-88313714D01*
X172513452Y-88313714D02*
X172465833Y-88408952D01*
X172465833Y-88408952D02*
X172418214Y-88456571D01*
X172418214Y-88456571D02*
X172322976Y-88504190D01*
X172322976Y-88504190D02*
X171942024Y-88504190D01*
X172894405Y-88075619D02*
X172942024Y-88028000D01*
X172942024Y-88028000D02*
X173037262Y-87980380D01*
X173037262Y-87980380D02*
X173275357Y-87980380D01*
X173275357Y-87980380D02*
X173370595Y-88028000D01*
X173370595Y-88028000D02*
X173418214Y-88075619D01*
X173418214Y-88075619D02*
X173465833Y-88170857D01*
X173465833Y-88170857D02*
X173465833Y-88266095D01*
X173465833Y-88266095D02*
X173418214Y-88408952D01*
X173418214Y-88408952D02*
X172846786Y-88980380D01*
X172846786Y-88980380D02*
X173465833Y-88980380D01*
X174084881Y-87980380D02*
X174180119Y-87980380D01*
X174180119Y-87980380D02*
X174275357Y-88028000D01*
X174275357Y-88028000D02*
X174322976Y-88075619D01*
X174322976Y-88075619D02*
X174370595Y-88170857D01*
X174370595Y-88170857D02*
X174418214Y-88361333D01*
X174418214Y-88361333D02*
X174418214Y-88599428D01*
X174418214Y-88599428D02*
X174370595Y-88789904D01*
X174370595Y-88789904D02*
X174322976Y-88885142D01*
X174322976Y-88885142D02*
X174275357Y-88932761D01*
X174275357Y-88932761D02*
X174180119Y-88980380D01*
X174180119Y-88980380D02*
X174084881Y-88980380D01*
X174084881Y-88980380D02*
X173989643Y-88932761D01*
X173989643Y-88932761D02*
X173942024Y-88885142D01*
X173942024Y-88885142D02*
X173894405Y-88789904D01*
X173894405Y-88789904D02*
X173846786Y-88599428D01*
X173846786Y-88599428D02*
X173846786Y-88361333D01*
X173846786Y-88361333D02*
X173894405Y-88170857D01*
X173894405Y-88170857D02*
X173942024Y-88075619D01*
X173942024Y-88075619D02*
X173989643Y-88028000D01*
X173989643Y-88028000D02*
X174084881Y-87980380D01*
X175370595Y-88980380D02*
X174799167Y-88980380D01*
X175084881Y-88980380D02*
X175084881Y-87980380D01*
X175084881Y-87980380D02*
X174989643Y-88123238D01*
X174989643Y-88123238D02*
X174894405Y-88218476D01*
X174894405Y-88218476D02*
X174799167Y-88266095D01*
%TO.C,R1*%
X118467333Y-89901380D02*
X118134000Y-89425190D01*
X117895905Y-89901380D02*
X117895905Y-88901380D01*
X117895905Y-88901380D02*
X118276857Y-88901380D01*
X118276857Y-88901380D02*
X118372095Y-88949000D01*
X118372095Y-88949000D02*
X118419714Y-88996619D01*
X118419714Y-88996619D02*
X118467333Y-89091857D01*
X118467333Y-89091857D02*
X118467333Y-89234714D01*
X118467333Y-89234714D02*
X118419714Y-89329952D01*
X118419714Y-89329952D02*
X118372095Y-89377571D01*
X118372095Y-89377571D02*
X118276857Y-89425190D01*
X118276857Y-89425190D02*
X117895905Y-89425190D01*
X119419714Y-89901380D02*
X118848286Y-89901380D01*
X119134000Y-89901380D02*
X119134000Y-88901380D01*
X119134000Y-88901380D02*
X119038762Y-89044238D01*
X119038762Y-89044238D02*
X118943524Y-89139476D01*
X118943524Y-89139476D02*
X118848286Y-89187095D01*
%TO.C,J201*%
X194929285Y-72729380D02*
X194929285Y-73443666D01*
X194929285Y-73443666D02*
X194881666Y-73586523D01*
X194881666Y-73586523D02*
X194786428Y-73681761D01*
X194786428Y-73681761D02*
X194643571Y-73729380D01*
X194643571Y-73729380D02*
X194548333Y-73729380D01*
X195357857Y-72824619D02*
X195405476Y-72777000D01*
X195405476Y-72777000D02*
X195500714Y-72729380D01*
X195500714Y-72729380D02*
X195738809Y-72729380D01*
X195738809Y-72729380D02*
X195834047Y-72777000D01*
X195834047Y-72777000D02*
X195881666Y-72824619D01*
X195881666Y-72824619D02*
X195929285Y-72919857D01*
X195929285Y-72919857D02*
X195929285Y-73015095D01*
X195929285Y-73015095D02*
X195881666Y-73157952D01*
X195881666Y-73157952D02*
X195310238Y-73729380D01*
X195310238Y-73729380D02*
X195929285Y-73729380D01*
X196548333Y-72729380D02*
X196643571Y-72729380D01*
X196643571Y-72729380D02*
X196738809Y-72777000D01*
X196738809Y-72777000D02*
X196786428Y-72824619D01*
X196786428Y-72824619D02*
X196834047Y-72919857D01*
X196834047Y-72919857D02*
X196881666Y-73110333D01*
X196881666Y-73110333D02*
X196881666Y-73348428D01*
X196881666Y-73348428D02*
X196834047Y-73538904D01*
X196834047Y-73538904D02*
X196786428Y-73634142D01*
X196786428Y-73634142D02*
X196738809Y-73681761D01*
X196738809Y-73681761D02*
X196643571Y-73729380D01*
X196643571Y-73729380D02*
X196548333Y-73729380D01*
X196548333Y-73729380D02*
X196453095Y-73681761D01*
X196453095Y-73681761D02*
X196405476Y-73634142D01*
X196405476Y-73634142D02*
X196357857Y-73538904D01*
X196357857Y-73538904D02*
X196310238Y-73348428D01*
X196310238Y-73348428D02*
X196310238Y-73110333D01*
X196310238Y-73110333D02*
X196357857Y-72919857D01*
X196357857Y-72919857D02*
X196405476Y-72824619D01*
X196405476Y-72824619D02*
X196453095Y-72777000D01*
X196453095Y-72777000D02*
X196548333Y-72729380D01*
X197834047Y-73729380D02*
X197262619Y-73729380D01*
X197548333Y-73729380D02*
X197548333Y-72729380D01*
X197548333Y-72729380D02*
X197453095Y-72872238D01*
X197453095Y-72872238D02*
X197357857Y-72967476D01*
X197357857Y-72967476D02*
X197262619Y-73015095D01*
%TO.C,q1*%
X134871595Y-97556714D02*
X134871595Y-98556714D01*
X134871595Y-98175761D02*
X134776357Y-98223380D01*
X134776357Y-98223380D02*
X134585881Y-98223380D01*
X134585881Y-98223380D02*
X134490643Y-98175761D01*
X134490643Y-98175761D02*
X134443024Y-98128142D01*
X134443024Y-98128142D02*
X134395405Y-98032904D01*
X134395405Y-98032904D02*
X134395405Y-97747190D01*
X134395405Y-97747190D02*
X134443024Y-97651952D01*
X134443024Y-97651952D02*
X134490643Y-97604333D01*
X134490643Y-97604333D02*
X134585881Y-97556714D01*
X134585881Y-97556714D02*
X134776357Y-97556714D01*
X134776357Y-97556714D02*
X134871595Y-97604333D01*
X135871595Y-98223380D02*
X135300167Y-98223380D01*
X135585881Y-98223380D02*
X135585881Y-97223380D01*
X135585881Y-97223380D02*
X135490643Y-97366238D01*
X135490643Y-97366238D02*
X135395405Y-97461476D01*
X135395405Y-97461476D02*
X135300167Y-97509095D01*
%TO.C,PS1*%
X190105380Y-124912285D02*
X189105380Y-124912285D01*
X189105380Y-124912285D02*
X189105380Y-124531333D01*
X189105380Y-124531333D02*
X189153000Y-124436095D01*
X189153000Y-124436095D02*
X189200619Y-124388476D01*
X189200619Y-124388476D02*
X189295857Y-124340857D01*
X189295857Y-124340857D02*
X189438714Y-124340857D01*
X189438714Y-124340857D02*
X189533952Y-124388476D01*
X189533952Y-124388476D02*
X189581571Y-124436095D01*
X189581571Y-124436095D02*
X189629190Y-124531333D01*
X189629190Y-124531333D02*
X189629190Y-124912285D01*
X190057761Y-123959904D02*
X190105380Y-123817047D01*
X190105380Y-123817047D02*
X190105380Y-123578952D01*
X190105380Y-123578952D02*
X190057761Y-123483714D01*
X190057761Y-123483714D02*
X190010142Y-123436095D01*
X190010142Y-123436095D02*
X189914904Y-123388476D01*
X189914904Y-123388476D02*
X189819666Y-123388476D01*
X189819666Y-123388476D02*
X189724428Y-123436095D01*
X189724428Y-123436095D02*
X189676809Y-123483714D01*
X189676809Y-123483714D02*
X189629190Y-123578952D01*
X189629190Y-123578952D02*
X189581571Y-123769428D01*
X189581571Y-123769428D02*
X189533952Y-123864666D01*
X189533952Y-123864666D02*
X189486333Y-123912285D01*
X189486333Y-123912285D02*
X189391095Y-123959904D01*
X189391095Y-123959904D02*
X189295857Y-123959904D01*
X189295857Y-123959904D02*
X189200619Y-123912285D01*
X189200619Y-123912285D02*
X189153000Y-123864666D01*
X189153000Y-123864666D02*
X189105380Y-123769428D01*
X189105380Y-123769428D02*
X189105380Y-123531333D01*
X189105380Y-123531333D02*
X189153000Y-123388476D01*
X190105380Y-122436095D02*
X190105380Y-123007523D01*
X190105380Y-122721809D02*
X189105380Y-122721809D01*
X189105380Y-122721809D02*
X189248238Y-122817047D01*
X189248238Y-122817047D02*
X189343476Y-122912285D01*
X189343476Y-122912285D02*
X189391095Y-123007523D01*
%TO.C,D201*%
X200519380Y-89692475D02*
X199519380Y-89692475D01*
X199519380Y-89692475D02*
X199519380Y-89454380D01*
X199519380Y-89454380D02*
X199567000Y-89311523D01*
X199567000Y-89311523D02*
X199662238Y-89216285D01*
X199662238Y-89216285D02*
X199757476Y-89168666D01*
X199757476Y-89168666D02*
X199947952Y-89121047D01*
X199947952Y-89121047D02*
X200090809Y-89121047D01*
X200090809Y-89121047D02*
X200281285Y-89168666D01*
X200281285Y-89168666D02*
X200376523Y-89216285D01*
X200376523Y-89216285D02*
X200471761Y-89311523D01*
X200471761Y-89311523D02*
X200519380Y-89454380D01*
X200519380Y-89454380D02*
X200519380Y-89692475D01*
X199614619Y-88740094D02*
X199567000Y-88692475D01*
X199567000Y-88692475D02*
X199519380Y-88597237D01*
X199519380Y-88597237D02*
X199519380Y-88359142D01*
X199519380Y-88359142D02*
X199567000Y-88263904D01*
X199567000Y-88263904D02*
X199614619Y-88216285D01*
X199614619Y-88216285D02*
X199709857Y-88168666D01*
X199709857Y-88168666D02*
X199805095Y-88168666D01*
X199805095Y-88168666D02*
X199947952Y-88216285D01*
X199947952Y-88216285D02*
X200519380Y-88787713D01*
X200519380Y-88787713D02*
X200519380Y-88168666D01*
X199519380Y-87549618D02*
X199519380Y-87454380D01*
X199519380Y-87454380D02*
X199567000Y-87359142D01*
X199567000Y-87359142D02*
X199614619Y-87311523D01*
X199614619Y-87311523D02*
X199709857Y-87263904D01*
X199709857Y-87263904D02*
X199900333Y-87216285D01*
X199900333Y-87216285D02*
X200138428Y-87216285D01*
X200138428Y-87216285D02*
X200328904Y-87263904D01*
X200328904Y-87263904D02*
X200424142Y-87311523D01*
X200424142Y-87311523D02*
X200471761Y-87359142D01*
X200471761Y-87359142D02*
X200519380Y-87454380D01*
X200519380Y-87454380D02*
X200519380Y-87549618D01*
X200519380Y-87549618D02*
X200471761Y-87644856D01*
X200471761Y-87644856D02*
X200424142Y-87692475D01*
X200424142Y-87692475D02*
X200328904Y-87740094D01*
X200328904Y-87740094D02*
X200138428Y-87787713D01*
X200138428Y-87787713D02*
X199900333Y-87787713D01*
X199900333Y-87787713D02*
X199709857Y-87740094D01*
X199709857Y-87740094D02*
X199614619Y-87692475D01*
X199614619Y-87692475D02*
X199567000Y-87644856D01*
X199567000Y-87644856D02*
X199519380Y-87549618D01*
X200519380Y-86263904D02*
X200519380Y-86835332D01*
X200519380Y-86549618D02*
X199519380Y-86549618D01*
X199519380Y-86549618D02*
X199662238Y-86644856D01*
X199662238Y-86644856D02*
X199757476Y-86740094D01*
X199757476Y-86740094D02*
X199805095Y-86835332D01*
%TO.C,R5*%
X138517333Y-98538380D02*
X138184000Y-98062190D01*
X137945905Y-98538380D02*
X137945905Y-97538380D01*
X137945905Y-97538380D02*
X138326857Y-97538380D01*
X138326857Y-97538380D02*
X138422095Y-97586000D01*
X138422095Y-97586000D02*
X138469714Y-97633619D01*
X138469714Y-97633619D02*
X138517333Y-97728857D01*
X138517333Y-97728857D02*
X138517333Y-97871714D01*
X138517333Y-97871714D02*
X138469714Y-97966952D01*
X138469714Y-97966952D02*
X138422095Y-98014571D01*
X138422095Y-98014571D02*
X138326857Y-98062190D01*
X138326857Y-98062190D02*
X137945905Y-98062190D01*
X139422095Y-97538380D02*
X138945905Y-97538380D01*
X138945905Y-97538380D02*
X138898286Y-98014571D01*
X138898286Y-98014571D02*
X138945905Y-97966952D01*
X138945905Y-97966952D02*
X139041143Y-97919333D01*
X139041143Y-97919333D02*
X139279238Y-97919333D01*
X139279238Y-97919333D02*
X139374476Y-97966952D01*
X139374476Y-97966952D02*
X139422095Y-98014571D01*
X139422095Y-98014571D02*
X139469714Y-98109809D01*
X139469714Y-98109809D02*
X139469714Y-98347904D01*
X139469714Y-98347904D02*
X139422095Y-98443142D01*
X139422095Y-98443142D02*
X139374476Y-98490761D01*
X139374476Y-98490761D02*
X139279238Y-98538380D01*
X139279238Y-98538380D02*
X139041143Y-98538380D01*
X139041143Y-98538380D02*
X138945905Y-98490761D01*
X138945905Y-98490761D02*
X138898286Y-98443142D01*
%TO.C,R6*%
X140803333Y-98665380D02*
X140470000Y-98189190D01*
X140231905Y-98665380D02*
X140231905Y-97665380D01*
X140231905Y-97665380D02*
X140612857Y-97665380D01*
X140612857Y-97665380D02*
X140708095Y-97713000D01*
X140708095Y-97713000D02*
X140755714Y-97760619D01*
X140755714Y-97760619D02*
X140803333Y-97855857D01*
X140803333Y-97855857D02*
X140803333Y-97998714D01*
X140803333Y-97998714D02*
X140755714Y-98093952D01*
X140755714Y-98093952D02*
X140708095Y-98141571D01*
X140708095Y-98141571D02*
X140612857Y-98189190D01*
X140612857Y-98189190D02*
X140231905Y-98189190D01*
X141660476Y-97665380D02*
X141470000Y-97665380D01*
X141470000Y-97665380D02*
X141374762Y-97713000D01*
X141374762Y-97713000D02*
X141327143Y-97760619D01*
X141327143Y-97760619D02*
X141231905Y-97903476D01*
X141231905Y-97903476D02*
X141184286Y-98093952D01*
X141184286Y-98093952D02*
X141184286Y-98474904D01*
X141184286Y-98474904D02*
X141231905Y-98570142D01*
X141231905Y-98570142D02*
X141279524Y-98617761D01*
X141279524Y-98617761D02*
X141374762Y-98665380D01*
X141374762Y-98665380D02*
X141565238Y-98665380D01*
X141565238Y-98665380D02*
X141660476Y-98617761D01*
X141660476Y-98617761D02*
X141708095Y-98570142D01*
X141708095Y-98570142D02*
X141755714Y-98474904D01*
X141755714Y-98474904D02*
X141755714Y-98236809D01*
X141755714Y-98236809D02*
X141708095Y-98141571D01*
X141708095Y-98141571D02*
X141660476Y-98093952D01*
X141660476Y-98093952D02*
X141565238Y-98046333D01*
X141565238Y-98046333D02*
X141374762Y-98046333D01*
X141374762Y-98046333D02*
X141279524Y-98093952D01*
X141279524Y-98093952D02*
X141231905Y-98141571D01*
X141231905Y-98141571D02*
X141184286Y-98236809D01*
%TO.C,R2*%
X113625333Y-100697380D02*
X113292000Y-100221190D01*
X113053905Y-100697380D02*
X113053905Y-99697380D01*
X113053905Y-99697380D02*
X113434857Y-99697380D01*
X113434857Y-99697380D02*
X113530095Y-99745000D01*
X113530095Y-99745000D02*
X113577714Y-99792619D01*
X113577714Y-99792619D02*
X113625333Y-99887857D01*
X113625333Y-99887857D02*
X113625333Y-100030714D01*
X113625333Y-100030714D02*
X113577714Y-100125952D01*
X113577714Y-100125952D02*
X113530095Y-100173571D01*
X113530095Y-100173571D02*
X113434857Y-100221190D01*
X113434857Y-100221190D02*
X113053905Y-100221190D01*
X114006286Y-99792619D02*
X114053905Y-99745000D01*
X114053905Y-99745000D02*
X114149143Y-99697380D01*
X114149143Y-99697380D02*
X114387238Y-99697380D01*
X114387238Y-99697380D02*
X114482476Y-99745000D01*
X114482476Y-99745000D02*
X114530095Y-99792619D01*
X114530095Y-99792619D02*
X114577714Y-99887857D01*
X114577714Y-99887857D02*
X114577714Y-99983095D01*
X114577714Y-99983095D02*
X114530095Y-100125952D01*
X114530095Y-100125952D02*
X113958667Y-100697380D01*
X113958667Y-100697380D02*
X114577714Y-100697380D01*
%TO.C,C201*%
X207809582Y-101330142D02*
X207761963Y-101377761D01*
X207761963Y-101377761D02*
X207619106Y-101425380D01*
X207619106Y-101425380D02*
X207523868Y-101425380D01*
X207523868Y-101425380D02*
X207381011Y-101377761D01*
X207381011Y-101377761D02*
X207285773Y-101282523D01*
X207285773Y-101282523D02*
X207238154Y-101187285D01*
X207238154Y-101187285D02*
X207190535Y-100996809D01*
X207190535Y-100996809D02*
X207190535Y-100853952D01*
X207190535Y-100853952D02*
X207238154Y-100663476D01*
X207238154Y-100663476D02*
X207285773Y-100568238D01*
X207285773Y-100568238D02*
X207381011Y-100473000D01*
X207381011Y-100473000D02*
X207523868Y-100425380D01*
X207523868Y-100425380D02*
X207619106Y-100425380D01*
X207619106Y-100425380D02*
X207761963Y-100473000D01*
X207761963Y-100473000D02*
X207809582Y-100520619D01*
X208190535Y-100520619D02*
X208238154Y-100473000D01*
X208238154Y-100473000D02*
X208333392Y-100425380D01*
X208333392Y-100425380D02*
X208571487Y-100425380D01*
X208571487Y-100425380D02*
X208666725Y-100473000D01*
X208666725Y-100473000D02*
X208714344Y-100520619D01*
X208714344Y-100520619D02*
X208761963Y-100615857D01*
X208761963Y-100615857D02*
X208761963Y-100711095D01*
X208761963Y-100711095D02*
X208714344Y-100853952D01*
X208714344Y-100853952D02*
X208142916Y-101425380D01*
X208142916Y-101425380D02*
X208761963Y-101425380D01*
X209381011Y-100425380D02*
X209476249Y-100425380D01*
X209476249Y-100425380D02*
X209571487Y-100473000D01*
X209571487Y-100473000D02*
X209619106Y-100520619D01*
X209619106Y-100520619D02*
X209666725Y-100615857D01*
X209666725Y-100615857D02*
X209714344Y-100806333D01*
X209714344Y-100806333D02*
X209714344Y-101044428D01*
X209714344Y-101044428D02*
X209666725Y-101234904D01*
X209666725Y-101234904D02*
X209619106Y-101330142D01*
X209619106Y-101330142D02*
X209571487Y-101377761D01*
X209571487Y-101377761D02*
X209476249Y-101425380D01*
X209476249Y-101425380D02*
X209381011Y-101425380D01*
X209381011Y-101425380D02*
X209285773Y-101377761D01*
X209285773Y-101377761D02*
X209238154Y-101330142D01*
X209238154Y-101330142D02*
X209190535Y-101234904D01*
X209190535Y-101234904D02*
X209142916Y-101044428D01*
X209142916Y-101044428D02*
X209142916Y-100806333D01*
X209142916Y-100806333D02*
X209190535Y-100615857D01*
X209190535Y-100615857D02*
X209238154Y-100520619D01*
X209238154Y-100520619D02*
X209285773Y-100473000D01*
X209285773Y-100473000D02*
X209381011Y-100425380D01*
X210666725Y-101425380D02*
X210095297Y-101425380D01*
X210381011Y-101425380D02*
X210381011Y-100425380D01*
X210381011Y-100425380D02*
X210285773Y-100568238D01*
X210285773Y-100568238D02*
X210190535Y-100663476D01*
X210190535Y-100663476D02*
X210095297Y-100711095D01*
%TO.C,Q201*%
X211677380Y-72954219D02*
X211582142Y-72906600D01*
X211582142Y-72906600D02*
X211486904Y-72811361D01*
X211486904Y-72811361D02*
X211344047Y-72668504D01*
X211344047Y-72668504D02*
X211248809Y-72620885D01*
X211248809Y-72620885D02*
X211153571Y-72620885D01*
X211201190Y-72858980D02*
X211105952Y-72811361D01*
X211105952Y-72811361D02*
X211010714Y-72716123D01*
X211010714Y-72716123D02*
X210963095Y-72525647D01*
X210963095Y-72525647D02*
X210963095Y-72192314D01*
X210963095Y-72192314D02*
X211010714Y-72001838D01*
X211010714Y-72001838D02*
X211105952Y-71906600D01*
X211105952Y-71906600D02*
X211201190Y-71858980D01*
X211201190Y-71858980D02*
X211391666Y-71858980D01*
X211391666Y-71858980D02*
X211486904Y-71906600D01*
X211486904Y-71906600D02*
X211582142Y-72001838D01*
X211582142Y-72001838D02*
X211629761Y-72192314D01*
X211629761Y-72192314D02*
X211629761Y-72525647D01*
X211629761Y-72525647D02*
X211582142Y-72716123D01*
X211582142Y-72716123D02*
X211486904Y-72811361D01*
X211486904Y-72811361D02*
X211391666Y-72858980D01*
X211391666Y-72858980D02*
X211201190Y-72858980D01*
X212010714Y-71954219D02*
X212058333Y-71906600D01*
X212058333Y-71906600D02*
X212153571Y-71858980D01*
X212153571Y-71858980D02*
X212391666Y-71858980D01*
X212391666Y-71858980D02*
X212486904Y-71906600D01*
X212486904Y-71906600D02*
X212534523Y-71954219D01*
X212534523Y-71954219D02*
X212582142Y-72049457D01*
X212582142Y-72049457D02*
X212582142Y-72144695D01*
X212582142Y-72144695D02*
X212534523Y-72287552D01*
X212534523Y-72287552D02*
X211963095Y-72858980D01*
X211963095Y-72858980D02*
X212582142Y-72858980D01*
X213201190Y-71858980D02*
X213296428Y-71858980D01*
X213296428Y-71858980D02*
X213391666Y-71906600D01*
X213391666Y-71906600D02*
X213439285Y-71954219D01*
X213439285Y-71954219D02*
X213486904Y-72049457D01*
X213486904Y-72049457D02*
X213534523Y-72239933D01*
X213534523Y-72239933D02*
X213534523Y-72478028D01*
X213534523Y-72478028D02*
X213486904Y-72668504D01*
X213486904Y-72668504D02*
X213439285Y-72763742D01*
X213439285Y-72763742D02*
X213391666Y-72811361D01*
X213391666Y-72811361D02*
X213296428Y-72858980D01*
X213296428Y-72858980D02*
X213201190Y-72858980D01*
X213201190Y-72858980D02*
X213105952Y-72811361D01*
X213105952Y-72811361D02*
X213058333Y-72763742D01*
X213058333Y-72763742D02*
X213010714Y-72668504D01*
X213010714Y-72668504D02*
X212963095Y-72478028D01*
X212963095Y-72478028D02*
X212963095Y-72239933D01*
X212963095Y-72239933D02*
X213010714Y-72049457D01*
X213010714Y-72049457D02*
X213058333Y-71954219D01*
X213058333Y-71954219D02*
X213105952Y-71906600D01*
X213105952Y-71906600D02*
X213201190Y-71858980D01*
X214486904Y-72858980D02*
X213915476Y-72858980D01*
X214201190Y-72858980D02*
X214201190Y-71858980D01*
X214201190Y-71858980D02*
X214105952Y-72001838D01*
X214105952Y-72001838D02*
X214010714Y-72097076D01*
X214010714Y-72097076D02*
X213915476Y-72144695D01*
X211074000Y-82933380D02*
X211074000Y-83171476D01*
X210835905Y-83076238D02*
X211074000Y-83171476D01*
X211074000Y-83171476D02*
X211312095Y-83076238D01*
X210931143Y-83361952D02*
X211074000Y-83171476D01*
X211074000Y-83171476D02*
X211216857Y-83361952D01*
%TO.C,R3*%
X118324333Y-82748380D02*
X117991000Y-82272190D01*
X117752905Y-82748380D02*
X117752905Y-81748380D01*
X117752905Y-81748380D02*
X118133857Y-81748380D01*
X118133857Y-81748380D02*
X118229095Y-81796000D01*
X118229095Y-81796000D02*
X118276714Y-81843619D01*
X118276714Y-81843619D02*
X118324333Y-81938857D01*
X118324333Y-81938857D02*
X118324333Y-82081714D01*
X118324333Y-82081714D02*
X118276714Y-82176952D01*
X118276714Y-82176952D02*
X118229095Y-82224571D01*
X118229095Y-82224571D02*
X118133857Y-82272190D01*
X118133857Y-82272190D02*
X117752905Y-82272190D01*
X118657667Y-81748380D02*
X119276714Y-81748380D01*
X119276714Y-81748380D02*
X118943381Y-82129333D01*
X118943381Y-82129333D02*
X119086238Y-82129333D01*
X119086238Y-82129333D02*
X119181476Y-82176952D01*
X119181476Y-82176952D02*
X119229095Y-82224571D01*
X119229095Y-82224571D02*
X119276714Y-82319809D01*
X119276714Y-82319809D02*
X119276714Y-82557904D01*
X119276714Y-82557904D02*
X119229095Y-82653142D01*
X119229095Y-82653142D02*
X119181476Y-82700761D01*
X119181476Y-82700761D02*
X119086238Y-82748380D01*
X119086238Y-82748380D02*
X118800524Y-82748380D01*
X118800524Y-82748380D02*
X118705286Y-82700761D01*
X118705286Y-82700761D02*
X118657667Y-82653142D01*
%TO.C,R205*%
X194841952Y-102984380D02*
X194508619Y-102508190D01*
X194270524Y-102984380D02*
X194270524Y-101984380D01*
X194270524Y-101984380D02*
X194651476Y-101984380D01*
X194651476Y-101984380D02*
X194746714Y-102032000D01*
X194746714Y-102032000D02*
X194794333Y-102079619D01*
X194794333Y-102079619D02*
X194841952Y-102174857D01*
X194841952Y-102174857D02*
X194841952Y-102317714D01*
X194841952Y-102317714D02*
X194794333Y-102412952D01*
X194794333Y-102412952D02*
X194746714Y-102460571D01*
X194746714Y-102460571D02*
X194651476Y-102508190D01*
X194651476Y-102508190D02*
X194270524Y-102508190D01*
X195222905Y-102079619D02*
X195270524Y-102032000D01*
X195270524Y-102032000D02*
X195365762Y-101984380D01*
X195365762Y-101984380D02*
X195603857Y-101984380D01*
X195603857Y-101984380D02*
X195699095Y-102032000D01*
X195699095Y-102032000D02*
X195746714Y-102079619D01*
X195746714Y-102079619D02*
X195794333Y-102174857D01*
X195794333Y-102174857D02*
X195794333Y-102270095D01*
X195794333Y-102270095D02*
X195746714Y-102412952D01*
X195746714Y-102412952D02*
X195175286Y-102984380D01*
X195175286Y-102984380D02*
X195794333Y-102984380D01*
X196413381Y-101984380D02*
X196508619Y-101984380D01*
X196508619Y-101984380D02*
X196603857Y-102032000D01*
X196603857Y-102032000D02*
X196651476Y-102079619D01*
X196651476Y-102079619D02*
X196699095Y-102174857D01*
X196699095Y-102174857D02*
X196746714Y-102365333D01*
X196746714Y-102365333D02*
X196746714Y-102603428D01*
X196746714Y-102603428D02*
X196699095Y-102793904D01*
X196699095Y-102793904D02*
X196651476Y-102889142D01*
X196651476Y-102889142D02*
X196603857Y-102936761D01*
X196603857Y-102936761D02*
X196508619Y-102984380D01*
X196508619Y-102984380D02*
X196413381Y-102984380D01*
X196413381Y-102984380D02*
X196318143Y-102936761D01*
X196318143Y-102936761D02*
X196270524Y-102889142D01*
X196270524Y-102889142D02*
X196222905Y-102793904D01*
X196222905Y-102793904D02*
X196175286Y-102603428D01*
X196175286Y-102603428D02*
X196175286Y-102365333D01*
X196175286Y-102365333D02*
X196222905Y-102174857D01*
X196222905Y-102174857D02*
X196270524Y-102079619D01*
X196270524Y-102079619D02*
X196318143Y-102032000D01*
X196318143Y-102032000D02*
X196413381Y-101984380D01*
X197651476Y-101984380D02*
X197175286Y-101984380D01*
X197175286Y-101984380D02*
X197127667Y-102460571D01*
X197127667Y-102460571D02*
X197175286Y-102412952D01*
X197175286Y-102412952D02*
X197270524Y-102365333D01*
X197270524Y-102365333D02*
X197508619Y-102365333D01*
X197508619Y-102365333D02*
X197603857Y-102412952D01*
X197603857Y-102412952D02*
X197651476Y-102460571D01*
X197651476Y-102460571D02*
X197699095Y-102555809D01*
X197699095Y-102555809D02*
X197699095Y-102793904D01*
X197699095Y-102793904D02*
X197651476Y-102889142D01*
X197651476Y-102889142D02*
X197603857Y-102936761D01*
X197603857Y-102936761D02*
X197508619Y-102984380D01*
X197508619Y-102984380D02*
X197270524Y-102984380D01*
X197270524Y-102984380D02*
X197175286Y-102936761D01*
X197175286Y-102936761D02*
X197127667Y-102889142D01*
%TO.C,C200*%
X188237952Y-91425142D02*
X188190333Y-91472761D01*
X188190333Y-91472761D02*
X188047476Y-91520380D01*
X188047476Y-91520380D02*
X187952238Y-91520380D01*
X187952238Y-91520380D02*
X187809381Y-91472761D01*
X187809381Y-91472761D02*
X187714143Y-91377523D01*
X187714143Y-91377523D02*
X187666524Y-91282285D01*
X187666524Y-91282285D02*
X187618905Y-91091809D01*
X187618905Y-91091809D02*
X187618905Y-90948952D01*
X187618905Y-90948952D02*
X187666524Y-90758476D01*
X187666524Y-90758476D02*
X187714143Y-90663238D01*
X187714143Y-90663238D02*
X187809381Y-90568000D01*
X187809381Y-90568000D02*
X187952238Y-90520380D01*
X187952238Y-90520380D02*
X188047476Y-90520380D01*
X188047476Y-90520380D02*
X188190333Y-90568000D01*
X188190333Y-90568000D02*
X188237952Y-90615619D01*
X188618905Y-90615619D02*
X188666524Y-90568000D01*
X188666524Y-90568000D02*
X188761762Y-90520380D01*
X188761762Y-90520380D02*
X188999857Y-90520380D01*
X188999857Y-90520380D02*
X189095095Y-90568000D01*
X189095095Y-90568000D02*
X189142714Y-90615619D01*
X189142714Y-90615619D02*
X189190333Y-90710857D01*
X189190333Y-90710857D02*
X189190333Y-90806095D01*
X189190333Y-90806095D02*
X189142714Y-90948952D01*
X189142714Y-90948952D02*
X188571286Y-91520380D01*
X188571286Y-91520380D02*
X189190333Y-91520380D01*
X189809381Y-90520380D02*
X189904619Y-90520380D01*
X189904619Y-90520380D02*
X189999857Y-90568000D01*
X189999857Y-90568000D02*
X190047476Y-90615619D01*
X190047476Y-90615619D02*
X190095095Y-90710857D01*
X190095095Y-90710857D02*
X190142714Y-90901333D01*
X190142714Y-90901333D02*
X190142714Y-91139428D01*
X190142714Y-91139428D02*
X190095095Y-91329904D01*
X190095095Y-91329904D02*
X190047476Y-91425142D01*
X190047476Y-91425142D02*
X189999857Y-91472761D01*
X189999857Y-91472761D02*
X189904619Y-91520380D01*
X189904619Y-91520380D02*
X189809381Y-91520380D01*
X189809381Y-91520380D02*
X189714143Y-91472761D01*
X189714143Y-91472761D02*
X189666524Y-91425142D01*
X189666524Y-91425142D02*
X189618905Y-91329904D01*
X189618905Y-91329904D02*
X189571286Y-91139428D01*
X189571286Y-91139428D02*
X189571286Y-90901333D01*
X189571286Y-90901333D02*
X189618905Y-90710857D01*
X189618905Y-90710857D02*
X189666524Y-90615619D01*
X189666524Y-90615619D02*
X189714143Y-90568000D01*
X189714143Y-90568000D02*
X189809381Y-90520380D01*
X190761762Y-90520380D02*
X190857000Y-90520380D01*
X190857000Y-90520380D02*
X190952238Y-90568000D01*
X190952238Y-90568000D02*
X190999857Y-90615619D01*
X190999857Y-90615619D02*
X191047476Y-90710857D01*
X191047476Y-90710857D02*
X191095095Y-90901333D01*
X191095095Y-90901333D02*
X191095095Y-91139428D01*
X191095095Y-91139428D02*
X191047476Y-91329904D01*
X191047476Y-91329904D02*
X190999857Y-91425142D01*
X190999857Y-91425142D02*
X190952238Y-91472761D01*
X190952238Y-91472761D02*
X190857000Y-91520380D01*
X190857000Y-91520380D02*
X190761762Y-91520380D01*
X190761762Y-91520380D02*
X190666524Y-91472761D01*
X190666524Y-91472761D02*
X190618905Y-91425142D01*
X190618905Y-91425142D02*
X190571286Y-91329904D01*
X190571286Y-91329904D02*
X190523667Y-91139428D01*
X190523667Y-91139428D02*
X190523667Y-90901333D01*
X190523667Y-90901333D02*
X190571286Y-90710857D01*
X190571286Y-90710857D02*
X190618905Y-90615619D01*
X190618905Y-90615619D02*
X190666524Y-90568000D01*
X190666524Y-90568000D02*
X190761762Y-90520380D01*
%TO.C,U2*%
X124624071Y-81769612D02*
X124624071Y-82644037D01*
X124624071Y-82644037D02*
X124675507Y-82746911D01*
X124675507Y-82746911D02*
X124726944Y-82798348D01*
X124726944Y-82798348D02*
X124829818Y-82849785D01*
X124829818Y-82849785D02*
X125035565Y-82849785D01*
X125035565Y-82849785D02*
X125138439Y-82798348D01*
X125138439Y-82798348D02*
X125189875Y-82746911D01*
X125189875Y-82746911D02*
X125241312Y-82644037D01*
X125241312Y-82644037D02*
X125241312Y-81769612D01*
X125704244Y-81872485D02*
X125755681Y-81821049D01*
X125755681Y-81821049D02*
X125858554Y-81769612D01*
X125858554Y-81769612D02*
X126115738Y-81769612D01*
X126115738Y-81769612D02*
X126218612Y-81821049D01*
X126218612Y-81821049D02*
X126270049Y-81872485D01*
X126270049Y-81872485D02*
X126321485Y-81975359D01*
X126321485Y-81975359D02*
X126321485Y-82078233D01*
X126321485Y-82078233D02*
X126270049Y-82232543D01*
X126270049Y-82232543D02*
X125652807Y-82849785D01*
X125652807Y-82849785D02*
X126321485Y-82849785D01*
%TO.C,U3*%
X124624071Y-88119612D02*
X124624071Y-88994037D01*
X124624071Y-88994037D02*
X124675507Y-89096911D01*
X124675507Y-89096911D02*
X124726944Y-89148348D01*
X124726944Y-89148348D02*
X124829818Y-89199785D01*
X124829818Y-89199785D02*
X125035565Y-89199785D01*
X125035565Y-89199785D02*
X125138439Y-89148348D01*
X125138439Y-89148348D02*
X125189875Y-89096911D01*
X125189875Y-89096911D02*
X125241312Y-88994037D01*
X125241312Y-88994037D02*
X125241312Y-88119612D01*
X125652807Y-88119612D02*
X126321485Y-88119612D01*
X126321485Y-88119612D02*
X125961428Y-88531106D01*
X125961428Y-88531106D02*
X126115738Y-88531106D01*
X126115738Y-88531106D02*
X126218612Y-88582543D01*
X126218612Y-88582543D02*
X126270049Y-88633980D01*
X126270049Y-88633980D02*
X126321485Y-88736853D01*
X126321485Y-88736853D02*
X126321485Y-88994037D01*
X126321485Y-88994037D02*
X126270049Y-89096911D01*
X126270049Y-89096911D02*
X126218612Y-89148348D01*
X126218612Y-89148348D02*
X126115738Y-89199785D01*
X126115738Y-89199785D02*
X125807117Y-89199785D01*
X125807117Y-89199785D02*
X125704244Y-89148348D01*
X125704244Y-89148348D02*
X125652807Y-89096911D01*
%TO.C,U1*%
X180086095Y-95125380D02*
X180086095Y-95934904D01*
X180086095Y-95934904D02*
X180133714Y-96030142D01*
X180133714Y-96030142D02*
X180181333Y-96077761D01*
X180181333Y-96077761D02*
X180276571Y-96125380D01*
X180276571Y-96125380D02*
X180467047Y-96125380D01*
X180467047Y-96125380D02*
X180562285Y-96077761D01*
X180562285Y-96077761D02*
X180609904Y-96030142D01*
X180609904Y-96030142D02*
X180657523Y-95934904D01*
X180657523Y-95934904D02*
X180657523Y-95125380D01*
X181657523Y-96125380D02*
X181086095Y-96125380D01*
X181371809Y-96125380D02*
X181371809Y-95125380D01*
X181371809Y-95125380D02*
X181276571Y-95268238D01*
X181276571Y-95268238D02*
X181181333Y-95363476D01*
X181181333Y-95363476D02*
X181086095Y-95411095D01*
%TO.C,R200*%
X172513452Y-84789380D02*
X172180119Y-84313190D01*
X171942024Y-84789380D02*
X171942024Y-83789380D01*
X171942024Y-83789380D02*
X172322976Y-83789380D01*
X172322976Y-83789380D02*
X172418214Y-83837000D01*
X172418214Y-83837000D02*
X172465833Y-83884619D01*
X172465833Y-83884619D02*
X172513452Y-83979857D01*
X172513452Y-83979857D02*
X172513452Y-84122714D01*
X172513452Y-84122714D02*
X172465833Y-84217952D01*
X172465833Y-84217952D02*
X172418214Y-84265571D01*
X172418214Y-84265571D02*
X172322976Y-84313190D01*
X172322976Y-84313190D02*
X171942024Y-84313190D01*
X172894405Y-83884619D02*
X172942024Y-83837000D01*
X172942024Y-83837000D02*
X173037262Y-83789380D01*
X173037262Y-83789380D02*
X173275357Y-83789380D01*
X173275357Y-83789380D02*
X173370595Y-83837000D01*
X173370595Y-83837000D02*
X173418214Y-83884619D01*
X173418214Y-83884619D02*
X173465833Y-83979857D01*
X173465833Y-83979857D02*
X173465833Y-84075095D01*
X173465833Y-84075095D02*
X173418214Y-84217952D01*
X173418214Y-84217952D02*
X172846786Y-84789380D01*
X172846786Y-84789380D02*
X173465833Y-84789380D01*
X174084881Y-83789380D02*
X174180119Y-83789380D01*
X174180119Y-83789380D02*
X174275357Y-83837000D01*
X174275357Y-83837000D02*
X174322976Y-83884619D01*
X174322976Y-83884619D02*
X174370595Y-83979857D01*
X174370595Y-83979857D02*
X174418214Y-84170333D01*
X174418214Y-84170333D02*
X174418214Y-84408428D01*
X174418214Y-84408428D02*
X174370595Y-84598904D01*
X174370595Y-84598904D02*
X174322976Y-84694142D01*
X174322976Y-84694142D02*
X174275357Y-84741761D01*
X174275357Y-84741761D02*
X174180119Y-84789380D01*
X174180119Y-84789380D02*
X174084881Y-84789380D01*
X174084881Y-84789380D02*
X173989643Y-84741761D01*
X173989643Y-84741761D02*
X173942024Y-84694142D01*
X173942024Y-84694142D02*
X173894405Y-84598904D01*
X173894405Y-84598904D02*
X173846786Y-84408428D01*
X173846786Y-84408428D02*
X173846786Y-84170333D01*
X173846786Y-84170333D02*
X173894405Y-83979857D01*
X173894405Y-83979857D02*
X173942024Y-83884619D01*
X173942024Y-83884619D02*
X173989643Y-83837000D01*
X173989643Y-83837000D02*
X174084881Y-83789380D01*
X175037262Y-83789380D02*
X175132500Y-83789380D01*
X175132500Y-83789380D02*
X175227738Y-83837000D01*
X175227738Y-83837000D02*
X175275357Y-83884619D01*
X175275357Y-83884619D02*
X175322976Y-83979857D01*
X175322976Y-83979857D02*
X175370595Y-84170333D01*
X175370595Y-84170333D02*
X175370595Y-84408428D01*
X175370595Y-84408428D02*
X175322976Y-84598904D01*
X175322976Y-84598904D02*
X175275357Y-84694142D01*
X175275357Y-84694142D02*
X175227738Y-84741761D01*
X175227738Y-84741761D02*
X175132500Y-84789380D01*
X175132500Y-84789380D02*
X175037262Y-84789380D01*
X175037262Y-84789380D02*
X174942024Y-84741761D01*
X174942024Y-84741761D02*
X174894405Y-84694142D01*
X174894405Y-84694142D02*
X174846786Y-84598904D01*
X174846786Y-84598904D02*
X174799167Y-84408428D01*
X174799167Y-84408428D02*
X174799167Y-84170333D01*
X174799167Y-84170333D02*
X174846786Y-83979857D01*
X174846786Y-83979857D02*
X174894405Y-83884619D01*
X174894405Y-83884619D02*
X174942024Y-83837000D01*
X174942024Y-83837000D02*
X175037262Y-83789380D01*
%TO.C,U200*%
X165537380Y-98234285D02*
X166346904Y-98234285D01*
X166346904Y-98234285D02*
X166442142Y-98186666D01*
X166442142Y-98186666D02*
X166489761Y-98139047D01*
X166489761Y-98139047D02*
X166537380Y-98043809D01*
X166537380Y-98043809D02*
X166537380Y-97853333D01*
X166537380Y-97853333D02*
X166489761Y-97758095D01*
X166489761Y-97758095D02*
X166442142Y-97710476D01*
X166442142Y-97710476D02*
X166346904Y-97662857D01*
X166346904Y-97662857D02*
X165537380Y-97662857D01*
X165632619Y-97234285D02*
X165585000Y-97186666D01*
X165585000Y-97186666D02*
X165537380Y-97091428D01*
X165537380Y-97091428D02*
X165537380Y-96853333D01*
X165537380Y-96853333D02*
X165585000Y-96758095D01*
X165585000Y-96758095D02*
X165632619Y-96710476D01*
X165632619Y-96710476D02*
X165727857Y-96662857D01*
X165727857Y-96662857D02*
X165823095Y-96662857D01*
X165823095Y-96662857D02*
X165965952Y-96710476D01*
X165965952Y-96710476D02*
X166537380Y-97281904D01*
X166537380Y-97281904D02*
X166537380Y-96662857D01*
X165537380Y-96043809D02*
X165537380Y-95948571D01*
X165537380Y-95948571D02*
X165585000Y-95853333D01*
X165585000Y-95853333D02*
X165632619Y-95805714D01*
X165632619Y-95805714D02*
X165727857Y-95758095D01*
X165727857Y-95758095D02*
X165918333Y-95710476D01*
X165918333Y-95710476D02*
X166156428Y-95710476D01*
X166156428Y-95710476D02*
X166346904Y-95758095D01*
X166346904Y-95758095D02*
X166442142Y-95805714D01*
X166442142Y-95805714D02*
X166489761Y-95853333D01*
X166489761Y-95853333D02*
X166537380Y-95948571D01*
X166537380Y-95948571D02*
X166537380Y-96043809D01*
X166537380Y-96043809D02*
X166489761Y-96139047D01*
X166489761Y-96139047D02*
X166442142Y-96186666D01*
X166442142Y-96186666D02*
X166346904Y-96234285D01*
X166346904Y-96234285D02*
X166156428Y-96281904D01*
X166156428Y-96281904D02*
X165918333Y-96281904D01*
X165918333Y-96281904D02*
X165727857Y-96234285D01*
X165727857Y-96234285D02*
X165632619Y-96186666D01*
X165632619Y-96186666D02*
X165585000Y-96139047D01*
X165585000Y-96139047D02*
X165537380Y-96043809D01*
X165537380Y-95091428D02*
X165537380Y-94996190D01*
X165537380Y-94996190D02*
X165585000Y-94900952D01*
X165585000Y-94900952D02*
X165632619Y-94853333D01*
X165632619Y-94853333D02*
X165727857Y-94805714D01*
X165727857Y-94805714D02*
X165918333Y-94758095D01*
X165918333Y-94758095D02*
X166156428Y-94758095D01*
X166156428Y-94758095D02*
X166346904Y-94805714D01*
X166346904Y-94805714D02*
X166442142Y-94853333D01*
X166442142Y-94853333D02*
X166489761Y-94900952D01*
X166489761Y-94900952D02*
X166537380Y-94996190D01*
X166537380Y-94996190D02*
X166537380Y-95091428D01*
X166537380Y-95091428D02*
X166489761Y-95186666D01*
X166489761Y-95186666D02*
X166442142Y-95234285D01*
X166442142Y-95234285D02*
X166346904Y-95281904D01*
X166346904Y-95281904D02*
X166156428Y-95329523D01*
X166156428Y-95329523D02*
X165918333Y-95329523D01*
X165918333Y-95329523D02*
X165727857Y-95281904D01*
X165727857Y-95281904D02*
X165632619Y-95234285D01*
X165632619Y-95234285D02*
X165585000Y-95186666D01*
X165585000Y-95186666D02*
X165537380Y-95091428D01*
%TO.C,Q200*%
X202279380Y-72954219D02*
X202184142Y-72906600D01*
X202184142Y-72906600D02*
X202088904Y-72811361D01*
X202088904Y-72811361D02*
X201946047Y-72668504D01*
X201946047Y-72668504D02*
X201850809Y-72620885D01*
X201850809Y-72620885D02*
X201755571Y-72620885D01*
X201803190Y-72858980D02*
X201707952Y-72811361D01*
X201707952Y-72811361D02*
X201612714Y-72716123D01*
X201612714Y-72716123D02*
X201565095Y-72525647D01*
X201565095Y-72525647D02*
X201565095Y-72192314D01*
X201565095Y-72192314D02*
X201612714Y-72001838D01*
X201612714Y-72001838D02*
X201707952Y-71906600D01*
X201707952Y-71906600D02*
X201803190Y-71858980D01*
X201803190Y-71858980D02*
X201993666Y-71858980D01*
X201993666Y-71858980D02*
X202088904Y-71906600D01*
X202088904Y-71906600D02*
X202184142Y-72001838D01*
X202184142Y-72001838D02*
X202231761Y-72192314D01*
X202231761Y-72192314D02*
X202231761Y-72525647D01*
X202231761Y-72525647D02*
X202184142Y-72716123D01*
X202184142Y-72716123D02*
X202088904Y-72811361D01*
X202088904Y-72811361D02*
X201993666Y-72858980D01*
X201993666Y-72858980D02*
X201803190Y-72858980D01*
X202612714Y-71954219D02*
X202660333Y-71906600D01*
X202660333Y-71906600D02*
X202755571Y-71858980D01*
X202755571Y-71858980D02*
X202993666Y-71858980D01*
X202993666Y-71858980D02*
X203088904Y-71906600D01*
X203088904Y-71906600D02*
X203136523Y-71954219D01*
X203136523Y-71954219D02*
X203184142Y-72049457D01*
X203184142Y-72049457D02*
X203184142Y-72144695D01*
X203184142Y-72144695D02*
X203136523Y-72287552D01*
X203136523Y-72287552D02*
X202565095Y-72858980D01*
X202565095Y-72858980D02*
X203184142Y-72858980D01*
X203803190Y-71858980D02*
X203898428Y-71858980D01*
X203898428Y-71858980D02*
X203993666Y-71906600D01*
X203993666Y-71906600D02*
X204041285Y-71954219D01*
X204041285Y-71954219D02*
X204088904Y-72049457D01*
X204088904Y-72049457D02*
X204136523Y-72239933D01*
X204136523Y-72239933D02*
X204136523Y-72478028D01*
X204136523Y-72478028D02*
X204088904Y-72668504D01*
X204088904Y-72668504D02*
X204041285Y-72763742D01*
X204041285Y-72763742D02*
X203993666Y-72811361D01*
X203993666Y-72811361D02*
X203898428Y-72858980D01*
X203898428Y-72858980D02*
X203803190Y-72858980D01*
X203803190Y-72858980D02*
X203707952Y-72811361D01*
X203707952Y-72811361D02*
X203660333Y-72763742D01*
X203660333Y-72763742D02*
X203612714Y-72668504D01*
X203612714Y-72668504D02*
X203565095Y-72478028D01*
X203565095Y-72478028D02*
X203565095Y-72239933D01*
X203565095Y-72239933D02*
X203612714Y-72049457D01*
X203612714Y-72049457D02*
X203660333Y-71954219D01*
X203660333Y-71954219D02*
X203707952Y-71906600D01*
X203707952Y-71906600D02*
X203803190Y-71858980D01*
X204755571Y-71858980D02*
X204850809Y-71858980D01*
X204850809Y-71858980D02*
X204946047Y-71906600D01*
X204946047Y-71906600D02*
X204993666Y-71954219D01*
X204993666Y-71954219D02*
X205041285Y-72049457D01*
X205041285Y-72049457D02*
X205088904Y-72239933D01*
X205088904Y-72239933D02*
X205088904Y-72478028D01*
X205088904Y-72478028D02*
X205041285Y-72668504D01*
X205041285Y-72668504D02*
X204993666Y-72763742D01*
X204993666Y-72763742D02*
X204946047Y-72811361D01*
X204946047Y-72811361D02*
X204850809Y-72858980D01*
X204850809Y-72858980D02*
X204755571Y-72858980D01*
X204755571Y-72858980D02*
X204660333Y-72811361D01*
X204660333Y-72811361D02*
X204612714Y-72763742D01*
X204612714Y-72763742D02*
X204565095Y-72668504D01*
X204565095Y-72668504D02*
X204517476Y-72478028D01*
X204517476Y-72478028D02*
X204517476Y-72239933D01*
X204517476Y-72239933D02*
X204565095Y-72049457D01*
X204565095Y-72049457D02*
X204612714Y-71954219D01*
X204612714Y-71954219D02*
X204660333Y-71906600D01*
X204660333Y-71906600D02*
X204755571Y-71858980D01*
X202692000Y-82933380D02*
X202692000Y-83171476D01*
X202453905Y-83076238D02*
X202692000Y-83171476D01*
X202692000Y-83171476D02*
X202930095Y-83076238D01*
X202549143Y-83361952D02*
X202692000Y-83171476D01*
X202692000Y-83171476D02*
X202834857Y-83361952D01*
%TO.C,J200*%
X161669380Y-77993714D02*
X162383666Y-77993714D01*
X162383666Y-77993714D02*
X162526523Y-78041333D01*
X162526523Y-78041333D02*
X162621761Y-78136571D01*
X162621761Y-78136571D02*
X162669380Y-78279428D01*
X162669380Y-78279428D02*
X162669380Y-78374666D01*
X161764619Y-77565142D02*
X161717000Y-77517523D01*
X161717000Y-77517523D02*
X161669380Y-77422285D01*
X161669380Y-77422285D02*
X161669380Y-77184190D01*
X161669380Y-77184190D02*
X161717000Y-77088952D01*
X161717000Y-77088952D02*
X161764619Y-77041333D01*
X161764619Y-77041333D02*
X161859857Y-76993714D01*
X161859857Y-76993714D02*
X161955095Y-76993714D01*
X161955095Y-76993714D02*
X162097952Y-77041333D01*
X162097952Y-77041333D02*
X162669380Y-77612761D01*
X162669380Y-77612761D02*
X162669380Y-76993714D01*
X161669380Y-76374666D02*
X161669380Y-76279428D01*
X161669380Y-76279428D02*
X161717000Y-76184190D01*
X161717000Y-76184190D02*
X161764619Y-76136571D01*
X161764619Y-76136571D02*
X161859857Y-76088952D01*
X161859857Y-76088952D02*
X162050333Y-76041333D01*
X162050333Y-76041333D02*
X162288428Y-76041333D01*
X162288428Y-76041333D02*
X162478904Y-76088952D01*
X162478904Y-76088952D02*
X162574142Y-76136571D01*
X162574142Y-76136571D02*
X162621761Y-76184190D01*
X162621761Y-76184190D02*
X162669380Y-76279428D01*
X162669380Y-76279428D02*
X162669380Y-76374666D01*
X162669380Y-76374666D02*
X162621761Y-76469904D01*
X162621761Y-76469904D02*
X162574142Y-76517523D01*
X162574142Y-76517523D02*
X162478904Y-76565142D01*
X162478904Y-76565142D02*
X162288428Y-76612761D01*
X162288428Y-76612761D02*
X162050333Y-76612761D01*
X162050333Y-76612761D02*
X161859857Y-76565142D01*
X161859857Y-76565142D02*
X161764619Y-76517523D01*
X161764619Y-76517523D02*
X161717000Y-76469904D01*
X161717000Y-76469904D02*
X161669380Y-76374666D01*
X161669380Y-75422285D02*
X161669380Y-75327047D01*
X161669380Y-75327047D02*
X161717000Y-75231809D01*
X161717000Y-75231809D02*
X161764619Y-75184190D01*
X161764619Y-75184190D02*
X161859857Y-75136571D01*
X161859857Y-75136571D02*
X162050333Y-75088952D01*
X162050333Y-75088952D02*
X162288428Y-75088952D01*
X162288428Y-75088952D02*
X162478904Y-75136571D01*
X162478904Y-75136571D02*
X162574142Y-75184190D01*
X162574142Y-75184190D02*
X162621761Y-75231809D01*
X162621761Y-75231809D02*
X162669380Y-75327047D01*
X162669380Y-75327047D02*
X162669380Y-75422285D01*
X162669380Y-75422285D02*
X162621761Y-75517523D01*
X162621761Y-75517523D02*
X162574142Y-75565142D01*
X162574142Y-75565142D02*
X162478904Y-75612761D01*
X162478904Y-75612761D02*
X162288428Y-75660380D01*
X162288428Y-75660380D02*
X162050333Y-75660380D01*
X162050333Y-75660380D02*
X161859857Y-75612761D01*
X161859857Y-75612761D02*
X161764619Y-75565142D01*
X161764619Y-75565142D02*
X161717000Y-75517523D01*
X161717000Y-75517523D02*
X161669380Y-75422285D01*
%TO.C,D1*%
X145946905Y-98959380D02*
X145946905Y-97959380D01*
X145946905Y-97959380D02*
X146185000Y-97959380D01*
X146185000Y-97959380D02*
X146327857Y-98007000D01*
X146327857Y-98007000D02*
X146423095Y-98102238D01*
X146423095Y-98102238D02*
X146470714Y-98197476D01*
X146470714Y-98197476D02*
X146518333Y-98387952D01*
X146518333Y-98387952D02*
X146518333Y-98530809D01*
X146518333Y-98530809D02*
X146470714Y-98721285D01*
X146470714Y-98721285D02*
X146423095Y-98816523D01*
X146423095Y-98816523D02*
X146327857Y-98911761D01*
X146327857Y-98911761D02*
X146185000Y-98959380D01*
X146185000Y-98959380D02*
X145946905Y-98959380D01*
X147470714Y-98959380D02*
X146899286Y-98959380D01*
X147185000Y-98959380D02*
X147185000Y-97959380D01*
X147185000Y-97959380D02*
X147089762Y-98102238D01*
X147089762Y-98102238D02*
X146994524Y-98197476D01*
X146994524Y-98197476D02*
X146899286Y-98245095D01*
%TO.C,K2*%
X134008905Y-103872380D02*
X134008905Y-102872380D01*
X134580333Y-103872380D02*
X134151762Y-103300952D01*
X134580333Y-102872380D02*
X134008905Y-103443809D01*
X134961286Y-102967619D02*
X135008905Y-102920000D01*
X135008905Y-102920000D02*
X135104143Y-102872380D01*
X135104143Y-102872380D02*
X135342238Y-102872380D01*
X135342238Y-102872380D02*
X135437476Y-102920000D01*
X135437476Y-102920000D02*
X135485095Y-102967619D01*
X135485095Y-102967619D02*
X135532714Y-103062857D01*
X135532714Y-103062857D02*
X135532714Y-103158095D01*
X135532714Y-103158095D02*
X135485095Y-103300952D01*
X135485095Y-103300952D02*
X134913667Y-103872380D01*
X134913667Y-103872380D02*
X135532714Y-103872380D01*
%TO.C,R203*%
X161911380Y-97893047D02*
X161435190Y-98226380D01*
X161911380Y-98464475D02*
X160911380Y-98464475D01*
X160911380Y-98464475D02*
X160911380Y-98083523D01*
X160911380Y-98083523D02*
X160959000Y-97988285D01*
X160959000Y-97988285D02*
X161006619Y-97940666D01*
X161006619Y-97940666D02*
X161101857Y-97893047D01*
X161101857Y-97893047D02*
X161244714Y-97893047D01*
X161244714Y-97893047D02*
X161339952Y-97940666D01*
X161339952Y-97940666D02*
X161387571Y-97988285D01*
X161387571Y-97988285D02*
X161435190Y-98083523D01*
X161435190Y-98083523D02*
X161435190Y-98464475D01*
X161006619Y-97512094D02*
X160959000Y-97464475D01*
X160959000Y-97464475D02*
X160911380Y-97369237D01*
X160911380Y-97369237D02*
X160911380Y-97131142D01*
X160911380Y-97131142D02*
X160959000Y-97035904D01*
X160959000Y-97035904D02*
X161006619Y-96988285D01*
X161006619Y-96988285D02*
X161101857Y-96940666D01*
X161101857Y-96940666D02*
X161197095Y-96940666D01*
X161197095Y-96940666D02*
X161339952Y-96988285D01*
X161339952Y-96988285D02*
X161911380Y-97559713D01*
X161911380Y-97559713D02*
X161911380Y-96940666D01*
X160911380Y-96321618D02*
X160911380Y-96226380D01*
X160911380Y-96226380D02*
X160959000Y-96131142D01*
X160959000Y-96131142D02*
X161006619Y-96083523D01*
X161006619Y-96083523D02*
X161101857Y-96035904D01*
X161101857Y-96035904D02*
X161292333Y-95988285D01*
X161292333Y-95988285D02*
X161530428Y-95988285D01*
X161530428Y-95988285D02*
X161720904Y-96035904D01*
X161720904Y-96035904D02*
X161816142Y-96083523D01*
X161816142Y-96083523D02*
X161863761Y-96131142D01*
X161863761Y-96131142D02*
X161911380Y-96226380D01*
X161911380Y-96226380D02*
X161911380Y-96321618D01*
X161911380Y-96321618D02*
X161863761Y-96416856D01*
X161863761Y-96416856D02*
X161816142Y-96464475D01*
X161816142Y-96464475D02*
X161720904Y-96512094D01*
X161720904Y-96512094D02*
X161530428Y-96559713D01*
X161530428Y-96559713D02*
X161292333Y-96559713D01*
X161292333Y-96559713D02*
X161101857Y-96512094D01*
X161101857Y-96512094D02*
X161006619Y-96464475D01*
X161006619Y-96464475D02*
X160959000Y-96416856D01*
X160959000Y-96416856D02*
X160911380Y-96321618D01*
X160911380Y-95654951D02*
X160911380Y-95035904D01*
X160911380Y-95035904D02*
X161292333Y-95369237D01*
X161292333Y-95369237D02*
X161292333Y-95226380D01*
X161292333Y-95226380D02*
X161339952Y-95131142D01*
X161339952Y-95131142D02*
X161387571Y-95083523D01*
X161387571Y-95083523D02*
X161482809Y-95035904D01*
X161482809Y-95035904D02*
X161720904Y-95035904D01*
X161720904Y-95035904D02*
X161816142Y-95083523D01*
X161816142Y-95083523D02*
X161863761Y-95131142D01*
X161863761Y-95131142D02*
X161911380Y-95226380D01*
X161911380Y-95226380D02*
X161911380Y-95512094D01*
X161911380Y-95512094D02*
X161863761Y-95607332D01*
X161863761Y-95607332D02*
X161816142Y-95654951D01*
%TO.C,C1*%
X117314142Y-91800666D02*
X117361761Y-91848285D01*
X117361761Y-91848285D02*
X117409380Y-91991142D01*
X117409380Y-91991142D02*
X117409380Y-92086380D01*
X117409380Y-92086380D02*
X117361761Y-92229237D01*
X117361761Y-92229237D02*
X117266523Y-92324475D01*
X117266523Y-92324475D02*
X117171285Y-92372094D01*
X117171285Y-92372094D02*
X116980809Y-92419713D01*
X116980809Y-92419713D02*
X116837952Y-92419713D01*
X116837952Y-92419713D02*
X116647476Y-92372094D01*
X116647476Y-92372094D02*
X116552238Y-92324475D01*
X116552238Y-92324475D02*
X116457000Y-92229237D01*
X116457000Y-92229237D02*
X116409380Y-92086380D01*
X116409380Y-92086380D02*
X116409380Y-91991142D01*
X116409380Y-91991142D02*
X116457000Y-91848285D01*
X116457000Y-91848285D02*
X116504619Y-91800666D01*
X117409380Y-90848285D02*
X117409380Y-91419713D01*
X117409380Y-91133999D02*
X116409380Y-91133999D01*
X116409380Y-91133999D02*
X116552238Y-91229237D01*
X116552238Y-91229237D02*
X116647476Y-91324475D01*
X116647476Y-91324475D02*
X116695095Y-91419713D01*
%TO.C,R4*%
X113371333Y-105015380D02*
X113038000Y-104539190D01*
X112799905Y-105015380D02*
X112799905Y-104015380D01*
X112799905Y-104015380D02*
X113180857Y-104015380D01*
X113180857Y-104015380D02*
X113276095Y-104063000D01*
X113276095Y-104063000D02*
X113323714Y-104110619D01*
X113323714Y-104110619D02*
X113371333Y-104205857D01*
X113371333Y-104205857D02*
X113371333Y-104348714D01*
X113371333Y-104348714D02*
X113323714Y-104443952D01*
X113323714Y-104443952D02*
X113276095Y-104491571D01*
X113276095Y-104491571D02*
X113180857Y-104539190D01*
X113180857Y-104539190D02*
X112799905Y-104539190D01*
X114228476Y-104348714D02*
X114228476Y-105015380D01*
X113990381Y-103967761D02*
X113752286Y-104682047D01*
X113752286Y-104682047D02*
X114371333Y-104682047D01*
%TO.C,J1*%
X102745380Y-117935333D02*
X103459666Y-117935333D01*
X103459666Y-117935333D02*
X103602523Y-117982952D01*
X103602523Y-117982952D02*
X103697761Y-118078190D01*
X103697761Y-118078190D02*
X103745380Y-118221047D01*
X103745380Y-118221047D02*
X103745380Y-118316285D01*
X103745380Y-116935333D02*
X103745380Y-117506761D01*
X103745380Y-117221047D02*
X102745380Y-117221047D01*
X102745380Y-117221047D02*
X102888238Y-117316285D01*
X102888238Y-117316285D02*
X102983476Y-117411523D01*
X102983476Y-117411523D02*
X103031095Y-117506761D01*
%TO.C,D200*%
X196201380Y-89892475D02*
X195201380Y-89892475D01*
X195201380Y-89892475D02*
X195201380Y-89654380D01*
X195201380Y-89654380D02*
X195249000Y-89511523D01*
X195249000Y-89511523D02*
X195344238Y-89416285D01*
X195344238Y-89416285D02*
X195439476Y-89368666D01*
X195439476Y-89368666D02*
X195629952Y-89321047D01*
X195629952Y-89321047D02*
X195772809Y-89321047D01*
X195772809Y-89321047D02*
X195963285Y-89368666D01*
X195963285Y-89368666D02*
X196058523Y-89416285D01*
X196058523Y-89416285D02*
X196153761Y-89511523D01*
X196153761Y-89511523D02*
X196201380Y-89654380D01*
X196201380Y-89654380D02*
X196201380Y-89892475D01*
X195296619Y-88940094D02*
X195249000Y-88892475D01*
X195249000Y-88892475D02*
X195201380Y-88797237D01*
X195201380Y-88797237D02*
X195201380Y-88559142D01*
X195201380Y-88559142D02*
X195249000Y-88463904D01*
X195249000Y-88463904D02*
X195296619Y-88416285D01*
X195296619Y-88416285D02*
X195391857Y-88368666D01*
X195391857Y-88368666D02*
X195487095Y-88368666D01*
X195487095Y-88368666D02*
X195629952Y-88416285D01*
X195629952Y-88416285D02*
X196201380Y-88987713D01*
X196201380Y-88987713D02*
X196201380Y-88368666D01*
X195201380Y-87749618D02*
X195201380Y-87654380D01*
X195201380Y-87654380D02*
X195249000Y-87559142D01*
X195249000Y-87559142D02*
X195296619Y-87511523D01*
X195296619Y-87511523D02*
X195391857Y-87463904D01*
X195391857Y-87463904D02*
X195582333Y-87416285D01*
X195582333Y-87416285D02*
X195820428Y-87416285D01*
X195820428Y-87416285D02*
X196010904Y-87463904D01*
X196010904Y-87463904D02*
X196106142Y-87511523D01*
X196106142Y-87511523D02*
X196153761Y-87559142D01*
X196153761Y-87559142D02*
X196201380Y-87654380D01*
X196201380Y-87654380D02*
X196201380Y-87749618D01*
X196201380Y-87749618D02*
X196153761Y-87844856D01*
X196153761Y-87844856D02*
X196106142Y-87892475D01*
X196106142Y-87892475D02*
X196010904Y-87940094D01*
X196010904Y-87940094D02*
X195820428Y-87987713D01*
X195820428Y-87987713D02*
X195582333Y-87987713D01*
X195582333Y-87987713D02*
X195391857Y-87940094D01*
X195391857Y-87940094D02*
X195296619Y-87892475D01*
X195296619Y-87892475D02*
X195249000Y-87844856D01*
X195249000Y-87844856D02*
X195201380Y-87749618D01*
X195201380Y-86797237D02*
X195201380Y-86701999D01*
X195201380Y-86701999D02*
X195249000Y-86606761D01*
X195249000Y-86606761D02*
X195296619Y-86559142D01*
X195296619Y-86559142D02*
X195391857Y-86511523D01*
X195391857Y-86511523D02*
X195582333Y-86463904D01*
X195582333Y-86463904D02*
X195820428Y-86463904D01*
X195820428Y-86463904D02*
X196010904Y-86511523D01*
X196010904Y-86511523D02*
X196106142Y-86559142D01*
X196106142Y-86559142D02*
X196153761Y-86606761D01*
X196153761Y-86606761D02*
X196201380Y-86701999D01*
X196201380Y-86701999D02*
X196201380Y-86797237D01*
X196201380Y-86797237D02*
X196153761Y-86892475D01*
X196153761Y-86892475D02*
X196106142Y-86940094D01*
X196106142Y-86940094D02*
X196010904Y-86987713D01*
X196010904Y-86987713D02*
X195820428Y-87035332D01*
X195820428Y-87035332D02*
X195582333Y-87035332D01*
X195582333Y-87035332D02*
X195391857Y-86987713D01*
X195391857Y-86987713D02*
X195296619Y-86940094D01*
X195296619Y-86940094D02*
X195249000Y-86892475D01*
X195249000Y-86892475D02*
X195201380Y-86797237D01*
D11*
%TO.C,R202*%
X183541936Y-88419000D02*
X183996064Y-88419000D01*
X183541936Y-89889000D02*
X183996064Y-89889000D01*
%TO.C,R204*%
X183996064Y-93699000D02*
X183541936Y-93699000D01*
X183996064Y-92229000D02*
X183541936Y-92229000D01*
%TO.C,C2*%
X140899755Y-76725000D02*
X142499755Y-76725000D01*
X141699755Y-75925000D02*
X141699755Y-77525000D01*
X149589246Y-73199000D02*
X149589246Y-89361000D01*
X149629246Y-73200000D02*
X149629246Y-89360000D01*
X149669246Y-73200000D02*
X149669246Y-89360000D01*
X149709246Y-73200000D02*
X149709246Y-89360000D01*
X149749246Y-73201000D02*
X149749246Y-89359000D01*
X149789246Y-73202000D02*
X149789246Y-89358000D01*
X149829246Y-73203000D02*
X149829246Y-89357000D01*
X149869246Y-73204000D02*
X149869246Y-89356000D01*
X149909246Y-73206000D02*
X149909246Y-89354000D01*
X149949246Y-73207000D02*
X149949246Y-89353000D01*
X149989246Y-73209000D02*
X149989246Y-89351000D01*
X150029246Y-73211000D02*
X150029246Y-89349000D01*
X150069246Y-73214000D02*
X150069246Y-89346000D01*
X150109246Y-73216000D02*
X150109246Y-89344000D01*
X150149246Y-73219000D02*
X150149246Y-89341000D01*
X150189246Y-73222000D02*
X150189246Y-89338000D01*
X150229246Y-73225000D02*
X150229246Y-89335000D01*
X150269246Y-73228000D02*
X150269246Y-89332000D01*
X150310246Y-73231000D02*
X150310246Y-89329000D01*
X150350246Y-73235000D02*
X150350246Y-89325000D01*
X150390246Y-73239000D02*
X150390246Y-89321000D01*
X150430246Y-73243000D02*
X150430246Y-89317000D01*
X150470246Y-73247000D02*
X150470246Y-89313000D01*
X150510246Y-73252000D02*
X150510246Y-89308000D01*
X150550246Y-73256000D02*
X150550246Y-89304000D01*
X150590246Y-73261000D02*
X150590246Y-89299000D01*
X150630246Y-73266000D02*
X150630246Y-89294000D01*
X150670246Y-73272000D02*
X150670246Y-89288000D01*
X150710246Y-73277000D02*
X150710246Y-89283000D01*
X150750246Y-73283000D02*
X150750246Y-89277000D01*
X150790246Y-73289000D02*
X150790246Y-89271000D01*
X150830246Y-73295000D02*
X150830246Y-89265000D01*
X150870246Y-73301000D02*
X150870246Y-89259000D01*
X150910246Y-73308000D02*
X150910246Y-89252000D01*
X150950246Y-73314000D02*
X150950246Y-89246000D01*
X150990246Y-73321000D02*
X150990246Y-89239000D01*
X151030246Y-73328000D02*
X151030246Y-89232000D01*
X151070246Y-73336000D02*
X151070246Y-89224000D01*
X151110246Y-73343000D02*
X151110246Y-89217000D01*
X151150246Y-73351000D02*
X151150246Y-89209000D01*
X151190246Y-73359000D02*
X151190246Y-89201000D01*
X151230246Y-73367000D02*
X151230246Y-89193000D01*
X151270246Y-73375000D02*
X151270246Y-89185000D01*
X151310246Y-73384000D02*
X151310246Y-89176000D01*
X151350246Y-73393000D02*
X151350246Y-89167000D01*
X151390246Y-73402000D02*
X151390246Y-89158000D01*
X151430246Y-73411000D02*
X151430246Y-89149000D01*
X151470246Y-73420000D02*
X151470246Y-89140000D01*
X151510246Y-73430000D02*
X151510246Y-89130000D01*
X151550246Y-73440000D02*
X151550246Y-89120000D01*
X151590246Y-73450000D02*
X151590246Y-89110000D01*
X151630246Y-73460000D02*
X151630246Y-89100000D01*
X151670246Y-73470000D02*
X151670246Y-89090000D01*
X151710246Y-73481000D02*
X151710246Y-89079000D01*
X151750246Y-73492000D02*
X151750246Y-89068000D01*
X151790246Y-73503000D02*
X151790246Y-89057000D01*
X151830246Y-73515000D02*
X151830246Y-89045000D01*
X151870246Y-73526000D02*
X151870246Y-89034000D01*
X151910246Y-73538000D02*
X151910246Y-79840000D01*
X151910246Y-82720000D02*
X151910246Y-89022000D01*
X151950246Y-73550000D02*
X151950246Y-79840000D01*
X151950246Y-82720000D02*
X151950246Y-89010000D01*
X151990246Y-73562000D02*
X151990246Y-79840000D01*
X151990246Y-82720000D02*
X151990246Y-88998000D01*
X152030246Y-73575000D02*
X152030246Y-79840000D01*
X152030246Y-82720000D02*
X152030246Y-88985000D01*
X152070246Y-73587000D02*
X152070246Y-79840000D01*
X152070246Y-82720000D02*
X152070246Y-88973000D01*
X152110246Y-73600000D02*
X152110246Y-79840000D01*
X152110246Y-82720000D02*
X152110246Y-88960000D01*
X152150246Y-73614000D02*
X152150246Y-79840000D01*
X152150246Y-82720000D02*
X152150246Y-88946000D01*
X152190246Y-73627000D02*
X152190246Y-79840000D01*
X152190246Y-82720000D02*
X152190246Y-88933000D01*
X152230246Y-73641000D02*
X152230246Y-79840000D01*
X152230246Y-82720000D02*
X152230246Y-88919000D01*
X152270246Y-73655000D02*
X152270246Y-79840000D01*
X152270246Y-82720000D02*
X152270246Y-88905000D01*
X152310246Y-73669000D02*
X152310246Y-79840000D01*
X152310246Y-82720000D02*
X152310246Y-88891000D01*
X152350246Y-73683000D02*
X152350246Y-79840000D01*
X152350246Y-82720000D02*
X152350246Y-88877000D01*
X152390246Y-73698000D02*
X152390246Y-79840000D01*
X152390246Y-82720000D02*
X152390246Y-88862000D01*
X152430246Y-73712000D02*
X152430246Y-79840000D01*
X152430246Y-82720000D02*
X152430246Y-88848000D01*
X152470246Y-73727000D02*
X152470246Y-79840000D01*
X152470246Y-82720000D02*
X152470246Y-88833000D01*
X152510246Y-73743000D02*
X152510246Y-79840000D01*
X152510246Y-82720000D02*
X152510246Y-88817000D01*
X152550246Y-73758000D02*
X152550246Y-79840000D01*
X152550246Y-82720000D02*
X152550246Y-88802000D01*
X152590246Y-73774000D02*
X152590246Y-79840000D01*
X152590246Y-82720000D02*
X152590246Y-88786000D01*
X152630246Y-73790000D02*
X152630246Y-79840000D01*
X152630246Y-82720000D02*
X152630246Y-88770000D01*
X152670246Y-73806000D02*
X152670246Y-79840000D01*
X152670246Y-82720000D02*
X152670246Y-88754000D01*
X152710246Y-73823000D02*
X152710246Y-79840000D01*
X152710246Y-82720000D02*
X152710246Y-88737000D01*
X152750246Y-73840000D02*
X152750246Y-79840000D01*
X152750246Y-82720000D02*
X152750246Y-88720000D01*
X152790246Y-73857000D02*
X152790246Y-79840000D01*
X152790246Y-82720000D02*
X152790246Y-88703000D01*
X152830246Y-73874000D02*
X152830246Y-79840000D01*
X152830246Y-82720000D02*
X152830246Y-88686000D01*
X152870246Y-73891000D02*
X152870246Y-79840000D01*
X152870246Y-82720000D02*
X152870246Y-88669000D01*
X152910246Y-73909000D02*
X152910246Y-79840000D01*
X152910246Y-82720000D02*
X152910246Y-88651000D01*
X152950246Y-73927000D02*
X152950246Y-79840000D01*
X152950246Y-82720000D02*
X152950246Y-88633000D01*
X152990246Y-73946000D02*
X152990246Y-79840000D01*
X152990246Y-82720000D02*
X152990246Y-88614000D01*
X153030246Y-73964000D02*
X153030246Y-79840000D01*
X153030246Y-82720000D02*
X153030246Y-88596000D01*
X153070246Y-73983000D02*
X153070246Y-79840000D01*
X153070246Y-82720000D02*
X153070246Y-88577000D01*
X153110246Y-74002000D02*
X153110246Y-79840000D01*
X153110246Y-82720000D02*
X153110246Y-88558000D01*
X153150246Y-74022000D02*
X153150246Y-79840000D01*
X153150246Y-82720000D02*
X153150246Y-88538000D01*
X153190246Y-74041000D02*
X153190246Y-79840000D01*
X153190246Y-82720000D02*
X153190246Y-88519000D01*
X153230246Y-74061000D02*
X153230246Y-79840000D01*
X153230246Y-82720000D02*
X153230246Y-88499000D01*
X153270246Y-74081000D02*
X153270246Y-79840000D01*
X153270246Y-82720000D02*
X153270246Y-88479000D01*
X153310246Y-74102000D02*
X153310246Y-79840000D01*
X153310246Y-82720000D02*
X153310246Y-88458000D01*
X153350246Y-74123000D02*
X153350246Y-79840000D01*
X153350246Y-82720000D02*
X153350246Y-88437000D01*
X153390246Y-74144000D02*
X153390246Y-79840000D01*
X153390246Y-82720000D02*
X153390246Y-88416000D01*
X153430246Y-74165000D02*
X153430246Y-79840000D01*
X153430246Y-82720000D02*
X153430246Y-88395000D01*
X153470246Y-74186000D02*
X153470246Y-79840000D01*
X153470246Y-82720000D02*
X153470246Y-88374000D01*
X153510246Y-74208000D02*
X153510246Y-79840000D01*
X153510246Y-82720000D02*
X153510246Y-88352000D01*
X153550246Y-74231000D02*
X153550246Y-79840000D01*
X153550246Y-82720000D02*
X153550246Y-88329000D01*
X153590246Y-74253000D02*
X153590246Y-79840000D01*
X153590246Y-82720000D02*
X153590246Y-88307000D01*
X153630246Y-74276000D02*
X153630246Y-79840000D01*
X153630246Y-82720000D02*
X153630246Y-88284000D01*
X153670246Y-74299000D02*
X153670246Y-79840000D01*
X153670246Y-82720000D02*
X153670246Y-88261000D01*
X153710246Y-74322000D02*
X153710246Y-79840000D01*
X153710246Y-82720000D02*
X153710246Y-88238000D01*
X153750246Y-74346000D02*
X153750246Y-79840000D01*
X153750246Y-82720000D02*
X153750246Y-88214000D01*
X153790246Y-74370000D02*
X153790246Y-79840000D01*
X153790246Y-82720000D02*
X153790246Y-88190000D01*
X153830246Y-74394000D02*
X153830246Y-79840000D01*
X153830246Y-82720000D02*
X153830246Y-88166000D01*
X153870246Y-74419000D02*
X153870246Y-79840000D01*
X153870246Y-82720000D02*
X153870246Y-88141000D01*
X153910246Y-74444000D02*
X153910246Y-79840000D01*
X153910246Y-82720000D02*
X153910246Y-88116000D01*
X153950246Y-74469000D02*
X153950246Y-79840000D01*
X153950246Y-82720000D02*
X153950246Y-88091000D01*
X153990246Y-74495000D02*
X153990246Y-79840000D01*
X153990246Y-82720000D02*
X153990246Y-88065000D01*
X154030246Y-74521000D02*
X154030246Y-79840000D01*
X154030246Y-82720000D02*
X154030246Y-88039000D01*
X154070246Y-74547000D02*
X154070246Y-79840000D01*
X154070246Y-82720000D02*
X154070246Y-88013000D01*
X154110246Y-74574000D02*
X154110246Y-79840000D01*
X154110246Y-82720000D02*
X154110246Y-87986000D01*
X154150246Y-74601000D02*
X154150246Y-79840000D01*
X154150246Y-82720000D02*
X154150246Y-87959000D01*
X154190246Y-74628000D02*
X154190246Y-79840000D01*
X154190246Y-82720000D02*
X154190246Y-87932000D01*
X154230246Y-74656000D02*
X154230246Y-79840000D01*
X154230246Y-82720000D02*
X154230246Y-87904000D01*
X154270246Y-74684000D02*
X154270246Y-79840000D01*
X154270246Y-82720000D02*
X154270246Y-87876000D01*
X154310246Y-74712000D02*
X154310246Y-79840000D01*
X154310246Y-82720000D02*
X154310246Y-87848000D01*
X154350246Y-74741000D02*
X154350246Y-79840000D01*
X154350246Y-82720000D02*
X154350246Y-87819000D01*
X154390246Y-74770000D02*
X154390246Y-79840000D01*
X154390246Y-82720000D02*
X154390246Y-87790000D01*
X154430246Y-74800000D02*
X154430246Y-79840000D01*
X154430246Y-82720000D02*
X154430246Y-87760000D01*
X154470246Y-74830000D02*
X154470246Y-79840000D01*
X154470246Y-82720000D02*
X154470246Y-87730000D01*
X154510246Y-74860000D02*
X154510246Y-79840000D01*
X154510246Y-82720000D02*
X154510246Y-87700000D01*
X154550246Y-74890000D02*
X154550246Y-79840000D01*
X154550246Y-82720000D02*
X154550246Y-87670000D01*
X154590246Y-74922000D02*
X154590246Y-79840000D01*
X154590246Y-82720000D02*
X154590246Y-87638000D01*
X154630246Y-74953000D02*
X154630246Y-79840000D01*
X154630246Y-82720000D02*
X154630246Y-87607000D01*
X154670246Y-74985000D02*
X154670246Y-79840000D01*
X154670246Y-82720000D02*
X154670246Y-87575000D01*
X154710246Y-75017000D02*
X154710246Y-79840000D01*
X154710246Y-82720000D02*
X154710246Y-87543000D01*
X154750246Y-75050000D02*
X154750246Y-79840000D01*
X154750246Y-82720000D02*
X154750246Y-87510000D01*
X154790246Y-75083000D02*
X154790246Y-87477000D01*
X154830246Y-75117000D02*
X154830246Y-87443000D01*
X154870246Y-75151000D02*
X154870246Y-87409000D01*
X154910246Y-75185000D02*
X154910246Y-87375000D01*
X154950246Y-75220000D02*
X154950246Y-87340000D01*
X154990246Y-75255000D02*
X154990246Y-87305000D01*
X155030246Y-75291000D02*
X155030246Y-87269000D01*
X155070246Y-75328000D02*
X155070246Y-87232000D01*
X155110246Y-75364000D02*
X155110246Y-87196000D01*
X155150246Y-75402000D02*
X155150246Y-87158000D01*
X155190246Y-75440000D02*
X155190246Y-87120000D01*
X155230246Y-75478000D02*
X155230246Y-87082000D01*
X155270246Y-75517000D02*
X155270246Y-87043000D01*
X155310246Y-75556000D02*
X155310246Y-87004000D01*
X155350246Y-75596000D02*
X155350246Y-86964000D01*
X155390246Y-75637000D02*
X155390246Y-86923000D01*
X155430246Y-75678000D02*
X155430246Y-86882000D01*
X155470246Y-75720000D02*
X155470246Y-86840000D01*
X155510246Y-75762000D02*
X155510246Y-86798000D01*
X155550246Y-75805000D02*
X155550246Y-86755000D01*
X155590246Y-75848000D02*
X155590246Y-86712000D01*
X155630246Y-75892000D02*
X155630246Y-86668000D01*
X155670246Y-75937000D02*
X155670246Y-86623000D01*
X155710246Y-75983000D02*
X155710246Y-86577000D01*
X155750246Y-76029000D02*
X155750246Y-86531000D01*
X155790246Y-76076000D02*
X155790246Y-86484000D01*
X155830246Y-76124000D02*
X155830246Y-86436000D01*
X155870246Y-76172000D02*
X155870246Y-86388000D01*
X155910246Y-76221000D02*
X155910246Y-86339000D01*
X155950246Y-76271000D02*
X155950246Y-86289000D01*
X155990246Y-76322000D02*
X155990246Y-86238000D01*
X156030246Y-76374000D02*
X156030246Y-86186000D01*
X156070246Y-76426000D02*
X156070246Y-86134000D01*
X156110246Y-76480000D02*
X156110246Y-86080000D01*
X156150246Y-76534000D02*
X156150246Y-86026000D01*
X156190246Y-76589000D02*
X156190246Y-85971000D01*
X156230246Y-76646000D02*
X156230246Y-85914000D01*
X156270246Y-76703000D02*
X156270246Y-85857000D01*
X156310246Y-76761000D02*
X156310246Y-85799000D01*
X156350246Y-76821000D02*
X156350246Y-85739000D01*
X156390246Y-76882000D02*
X156390246Y-85678000D01*
X156430246Y-76944000D02*
X156430246Y-85616000D01*
X156470246Y-77007000D02*
X156470246Y-85553000D01*
X156510246Y-77071000D02*
X156510246Y-85489000D01*
X156550246Y-77137000D02*
X156550246Y-85423000D01*
X156590246Y-77204000D02*
X156590246Y-85356000D01*
X156630246Y-77273000D02*
X156630246Y-85287000D01*
X156670246Y-77344000D02*
X156670246Y-85216000D01*
X156710246Y-77416000D02*
X156710246Y-85144000D01*
X156750246Y-77490000D02*
X156750246Y-85070000D01*
X156790246Y-77565000D02*
X156790246Y-84995000D01*
X156830246Y-77643000D02*
X156830246Y-84917000D01*
X156870246Y-77723000D02*
X156870246Y-84837000D01*
X156910246Y-77805000D02*
X156910246Y-84755000D01*
X156950246Y-77890000D02*
X156950246Y-84670000D01*
X156990246Y-77977000D02*
X156990246Y-84583000D01*
X157030246Y-78067000D02*
X157030246Y-84493000D01*
X157070246Y-78160000D02*
X157070246Y-84400000D01*
X157110246Y-78256000D02*
X157110246Y-84304000D01*
X157150246Y-78356000D02*
X157150246Y-84204000D01*
X157190246Y-78460000D02*
X157190246Y-84100000D01*
X157230246Y-78569000D02*
X157230246Y-83991000D01*
X157270246Y-78683000D02*
X157270246Y-83877000D01*
X157310246Y-78802000D02*
X157310246Y-83758000D01*
X157350246Y-78929000D02*
X157350246Y-83631000D01*
X157390246Y-79062000D02*
X157390246Y-83498000D01*
X157430246Y-79206000D02*
X157430246Y-83354000D01*
X157470246Y-79360000D02*
X157470246Y-83200000D01*
X157510246Y-79528000D02*
X157510246Y-83032000D01*
X157550246Y-79716000D02*
X157550246Y-82844000D01*
X157590246Y-79929000D02*
X157590246Y-82631000D01*
X157630246Y-80182000D02*
X157630246Y-82378000D01*
X157670246Y-80515000D02*
X157670246Y-82045000D01*
X157709246Y-81280000D02*
G75*
G03*
X157709246Y-81280000I-8120000J0D01*
G01*
%TO.C,C3*%
X186216113Y-96569000D02*
X186716113Y-96569000D01*
X186466113Y-96319000D02*
X186466113Y-96819000D01*
X189020888Y-95464000D02*
X189020888Y-100624000D01*
X189060888Y-95464000D02*
X189060888Y-100624000D01*
X189100888Y-95465000D02*
X189100888Y-100623000D01*
X189140888Y-95466000D02*
X189140888Y-100622000D01*
X189180888Y-95468000D02*
X189180888Y-100620000D01*
X189220888Y-95471000D02*
X189220888Y-100617000D01*
X189260888Y-95475000D02*
X189260888Y-97004000D01*
X189260888Y-99084000D02*
X189260888Y-100613000D01*
X189300888Y-95479000D02*
X189300888Y-97004000D01*
X189300888Y-99084000D02*
X189300888Y-100609000D01*
X189340888Y-95483000D02*
X189340888Y-97004000D01*
X189340888Y-99084000D02*
X189340888Y-100605000D01*
X189380888Y-95488000D02*
X189380888Y-97004000D01*
X189380888Y-99084000D02*
X189380888Y-100600000D01*
X189420888Y-95494000D02*
X189420888Y-97004000D01*
X189420888Y-99084000D02*
X189420888Y-100594000D01*
X189460888Y-95501000D02*
X189460888Y-97004000D01*
X189460888Y-99084000D02*
X189460888Y-100587000D01*
X189500888Y-95508000D02*
X189500888Y-97004000D01*
X189500888Y-99084000D02*
X189500888Y-100580000D01*
X189540888Y-95516000D02*
X189540888Y-97004000D01*
X189540888Y-99084000D02*
X189540888Y-100572000D01*
X189580888Y-95524000D02*
X189580888Y-97004000D01*
X189580888Y-99084000D02*
X189580888Y-100564000D01*
X189620888Y-95533000D02*
X189620888Y-97004000D01*
X189620888Y-99084000D02*
X189620888Y-100555000D01*
X189660888Y-95543000D02*
X189660888Y-97004000D01*
X189660888Y-99084000D02*
X189660888Y-100545000D01*
X189700888Y-95553000D02*
X189700888Y-97004000D01*
X189700888Y-99084000D02*
X189700888Y-100535000D01*
X189741888Y-95564000D02*
X189741888Y-97004000D01*
X189741888Y-99084000D02*
X189741888Y-100524000D01*
X189781888Y-95576000D02*
X189781888Y-97004000D01*
X189781888Y-99084000D02*
X189781888Y-100512000D01*
X189821888Y-95589000D02*
X189821888Y-97004000D01*
X189821888Y-99084000D02*
X189821888Y-100499000D01*
X189861888Y-95602000D02*
X189861888Y-97004000D01*
X189861888Y-99084000D02*
X189861888Y-100486000D01*
X189901888Y-95616000D02*
X189901888Y-97004000D01*
X189901888Y-99084000D02*
X189901888Y-100472000D01*
X189941888Y-95630000D02*
X189941888Y-97004000D01*
X189941888Y-99084000D02*
X189941888Y-100458000D01*
X189981888Y-95646000D02*
X189981888Y-97004000D01*
X189981888Y-99084000D02*
X189981888Y-100442000D01*
X190021888Y-95662000D02*
X190021888Y-97004000D01*
X190021888Y-99084000D02*
X190021888Y-100426000D01*
X190061888Y-95679000D02*
X190061888Y-97004000D01*
X190061888Y-99084000D02*
X190061888Y-100409000D01*
X190101888Y-95696000D02*
X190101888Y-97004000D01*
X190101888Y-99084000D02*
X190101888Y-100392000D01*
X190141888Y-95715000D02*
X190141888Y-97004000D01*
X190141888Y-99084000D02*
X190141888Y-100373000D01*
X190181888Y-95734000D02*
X190181888Y-97004000D01*
X190181888Y-99084000D02*
X190181888Y-100354000D01*
X190221888Y-95754000D02*
X190221888Y-97004000D01*
X190221888Y-99084000D02*
X190221888Y-100334000D01*
X190261888Y-95776000D02*
X190261888Y-97004000D01*
X190261888Y-99084000D02*
X190261888Y-100312000D01*
X190301888Y-95797000D02*
X190301888Y-97004000D01*
X190301888Y-99084000D02*
X190301888Y-100291000D01*
X190341888Y-95820000D02*
X190341888Y-97004000D01*
X190341888Y-99084000D02*
X190341888Y-100268000D01*
X190381888Y-95844000D02*
X190381888Y-97004000D01*
X190381888Y-99084000D02*
X190381888Y-100244000D01*
X190421888Y-95869000D02*
X190421888Y-97004000D01*
X190421888Y-99084000D02*
X190421888Y-100219000D01*
X190461888Y-95895000D02*
X190461888Y-97004000D01*
X190461888Y-99084000D02*
X190461888Y-100193000D01*
X190501888Y-95922000D02*
X190501888Y-97004000D01*
X190501888Y-99084000D02*
X190501888Y-100166000D01*
X190541888Y-95949000D02*
X190541888Y-97004000D01*
X190541888Y-99084000D02*
X190541888Y-100139000D01*
X190581888Y-95979000D02*
X190581888Y-97004000D01*
X190581888Y-99084000D02*
X190581888Y-100109000D01*
X190621888Y-96009000D02*
X190621888Y-97004000D01*
X190621888Y-99084000D02*
X190621888Y-100079000D01*
X190661888Y-96040000D02*
X190661888Y-97004000D01*
X190661888Y-99084000D02*
X190661888Y-100048000D01*
X190701888Y-96073000D02*
X190701888Y-97004000D01*
X190701888Y-99084000D02*
X190701888Y-100015000D01*
X190741888Y-96107000D02*
X190741888Y-97004000D01*
X190741888Y-99084000D02*
X190741888Y-99981000D01*
X190781888Y-96143000D02*
X190781888Y-97004000D01*
X190781888Y-99084000D02*
X190781888Y-99945000D01*
X190821888Y-96180000D02*
X190821888Y-97004000D01*
X190821888Y-99084000D02*
X190821888Y-99908000D01*
X190861888Y-96218000D02*
X190861888Y-97004000D01*
X190861888Y-99084000D02*
X190861888Y-99870000D01*
X190901888Y-96259000D02*
X190901888Y-97004000D01*
X190901888Y-99084000D02*
X190901888Y-99829000D01*
X190941888Y-96301000D02*
X190941888Y-97004000D01*
X190941888Y-99084000D02*
X190941888Y-99787000D01*
X190981888Y-96345000D02*
X190981888Y-97004000D01*
X190981888Y-99084000D02*
X190981888Y-99743000D01*
X191021888Y-96391000D02*
X191021888Y-97004000D01*
X191021888Y-99084000D02*
X191021888Y-99697000D01*
X191061888Y-96439000D02*
X191061888Y-97004000D01*
X191061888Y-99084000D02*
X191061888Y-99649000D01*
X191101888Y-96490000D02*
X191101888Y-97004000D01*
X191101888Y-99084000D02*
X191101888Y-99598000D01*
X191141888Y-96544000D02*
X191141888Y-97004000D01*
X191141888Y-99084000D02*
X191141888Y-99544000D01*
X191181888Y-96601000D02*
X191181888Y-97004000D01*
X191181888Y-99084000D02*
X191181888Y-99487000D01*
X191221888Y-96661000D02*
X191221888Y-97004000D01*
X191221888Y-99084000D02*
X191221888Y-99427000D01*
X191261888Y-96725000D02*
X191261888Y-97004000D01*
X191261888Y-99084000D02*
X191261888Y-99363000D01*
X191301888Y-96793000D02*
X191301888Y-97004000D01*
X191301888Y-99084000D02*
X191301888Y-99295000D01*
X191341888Y-96866000D02*
X191341888Y-99222000D01*
X191381888Y-96946000D02*
X191381888Y-99142000D01*
X191421888Y-97033000D02*
X191421888Y-99055000D01*
X191461888Y-97129000D02*
X191461888Y-98959000D01*
X191501888Y-97239000D02*
X191501888Y-98849000D01*
X191541888Y-97367000D02*
X191541888Y-98721000D01*
X191581888Y-97526000D02*
X191581888Y-98562000D01*
X191621888Y-97760000D02*
X191621888Y-98328000D01*
X191640888Y-98044000D02*
G75*
G03*
X191640888Y-98044000I-2620000J0D01*
G01*
%TO.C,R201*%
X173377776Y-89520500D02*
X173887224Y-89520500D01*
X173377776Y-90565500D02*
X173887224Y-90565500D01*
%TO.C,R1*%
X118861064Y-88619000D02*
X118406936Y-88619000D01*
X118861064Y-87149000D02*
X118406936Y-87149000D01*
%TO.C,J201*%
X194885000Y-74362000D02*
X196215000Y-74362000D01*
X194885000Y-75692000D02*
X194885000Y-74362000D01*
X194885000Y-76962000D02*
X194885000Y-82102000D01*
X194885000Y-76962000D02*
X197545000Y-76962000D01*
X194885000Y-82102000D02*
X197545000Y-82102000D01*
X197545000Y-76962000D02*
X197545000Y-82102000D01*
%TO.C,q1*%
X135133500Y-102210000D02*
X136933500Y-102210000D01*
X135133500Y-102210000D02*
X134333500Y-102210000D01*
X135133500Y-99090000D02*
X135933500Y-99090000D01*
X135133500Y-99090000D02*
X134333500Y-99090000D01*
D12*
%TO.C,PS1*%
X150907500Y-126214500D02*
X150907500Y-102214500D01*
X150907500Y-126214500D02*
X150907500Y-102214500D01*
X187907500Y-126214500D02*
X150907500Y-126214500D01*
X187907500Y-126214500D02*
X150907500Y-126214500D01*
X150907500Y-102214500D02*
X187907500Y-102214500D01*
X150907500Y-102214500D02*
X187907500Y-102214500D01*
X187907500Y-102214500D02*
X187907500Y-126214500D01*
X187907500Y-102214500D02*
X187907500Y-126214500D01*
D13*
X154267500Y-127015500D02*
G75*
G03*
X154267500Y-127015500I-100000J0D01*
G01*
D11*
%TO.C,D201*%
X199080000Y-86142000D02*
X197160000Y-86142000D01*
X197160000Y-86142000D02*
X197160000Y-89002000D01*
X199080000Y-89002000D02*
X199080000Y-86142000D01*
%TO.C,K1*%
X119507000Y-96869000D02*
X131953000Y-96869000D01*
X131953000Y-96869000D02*
X131953000Y-126587000D01*
X131953000Y-126587000D02*
X119507000Y-126587000D01*
X119507000Y-126587000D02*
X119507000Y-96869000D01*
%TO.C,R5*%
X139333500Y-100432776D02*
X139333500Y-100942224D01*
X138288500Y-100432776D02*
X138288500Y-100942224D01*
%TO.C,R6*%
X141492500Y-100456276D02*
X141492500Y-100965724D01*
X140447500Y-100456276D02*
X140447500Y-100965724D01*
%TO.C,R2*%
X113537276Y-98029500D02*
X114046724Y-98029500D01*
X113537276Y-99074500D02*
X114046724Y-99074500D01*
%TO.C,C201*%
X195424371Y-107733000D02*
X197924371Y-107733000D01*
X196674371Y-106483000D02*
X196674371Y-108983000D01*
X208928630Y-102227000D02*
X208928630Y-127389000D01*
X208968630Y-102228000D02*
X208968630Y-127388000D01*
X209008630Y-102228000D02*
X209008630Y-127388000D01*
X209048630Y-102228000D02*
X209048630Y-127388000D01*
X209088630Y-102229000D02*
X209088630Y-127387000D01*
X209128630Y-102229000D02*
X209128630Y-127387000D01*
X209168630Y-102230000D02*
X209168630Y-127386000D01*
X209208630Y-102231000D02*
X209208630Y-127385000D01*
X209248630Y-102232000D02*
X209248630Y-127384000D01*
X209288630Y-102233000D02*
X209288630Y-127383000D01*
X209328630Y-102234000D02*
X209328630Y-127382000D01*
X209368630Y-102235000D02*
X209368630Y-127381000D01*
X209408630Y-102237000D02*
X209408630Y-127379000D01*
X209448630Y-102238000D02*
X209448630Y-127378000D01*
X209488630Y-102240000D02*
X209488630Y-127376000D01*
X209528630Y-102242000D02*
X209528630Y-127374000D01*
X209568630Y-102244000D02*
X209568630Y-127372000D01*
X209608630Y-102246000D02*
X209608630Y-127370000D01*
X209649630Y-102248000D02*
X209649630Y-127368000D01*
X209689630Y-102250000D02*
X209689630Y-127366000D01*
X209729630Y-102253000D02*
X209729630Y-127363000D01*
X209769630Y-102255000D02*
X209769630Y-127361000D01*
X209809630Y-102258000D02*
X209809630Y-127358000D01*
X209849630Y-102261000D02*
X209849630Y-127355000D01*
X209889630Y-102264000D02*
X209889630Y-127352000D01*
X209929630Y-102267000D02*
X209929630Y-127349000D01*
X209969630Y-102270000D02*
X209969630Y-127346000D01*
X210009630Y-102274000D02*
X210009630Y-127342000D01*
X210049630Y-102277000D02*
X210049630Y-127339000D01*
X210089630Y-102281000D02*
X210089630Y-127335000D01*
X210129630Y-102285000D02*
X210129630Y-127331000D01*
X210169630Y-102289000D02*
X210169630Y-127327000D01*
X210209630Y-102293000D02*
X210209630Y-127323000D01*
X210249630Y-102297000D02*
X210249630Y-127319000D01*
X210289630Y-102301000D02*
X210289630Y-127315000D01*
X210329630Y-102305000D02*
X210329630Y-127311000D01*
X210369630Y-102310000D02*
X210369630Y-127306000D01*
X210409630Y-102315000D02*
X210409630Y-127301000D01*
X210449630Y-102319000D02*
X210449630Y-127297000D01*
X210489630Y-102324000D02*
X210489630Y-127292000D01*
X210529630Y-102329000D02*
X210529630Y-127287000D01*
X210569630Y-102335000D02*
X210569630Y-127281000D01*
X210609630Y-102340000D02*
X210609630Y-127276000D01*
X210649630Y-102345000D02*
X210649630Y-127271000D01*
X210689630Y-102351000D02*
X210689630Y-127265000D01*
X210729630Y-102357000D02*
X210729630Y-127259000D01*
X210769630Y-102362000D02*
X210769630Y-127254000D01*
X210809630Y-102368000D02*
X210809630Y-127248000D01*
X210849630Y-102374000D02*
X210849630Y-127242000D01*
X210889630Y-102381000D02*
X210889630Y-127235000D01*
X210929630Y-102387000D02*
X210929630Y-127229000D01*
X210969630Y-102393000D02*
X210969630Y-127223000D01*
X211009630Y-102400000D02*
X211009630Y-127216000D01*
X211049630Y-102407000D02*
X211049630Y-127209000D01*
X211089630Y-102414000D02*
X211089630Y-127202000D01*
X211129630Y-102421000D02*
X211129630Y-127195000D01*
X211169630Y-102428000D02*
X211169630Y-127188000D01*
X211209630Y-102435000D02*
X211209630Y-127181000D01*
X211249630Y-102443000D02*
X211249630Y-127173000D01*
X211289630Y-102450000D02*
X211289630Y-127166000D01*
X211329630Y-102458000D02*
X211329630Y-127158000D01*
X211369630Y-102466000D02*
X211369630Y-127150000D01*
X211409630Y-102474000D02*
X211409630Y-127142000D01*
X211449630Y-102482000D02*
X211449630Y-127134000D01*
X211489630Y-102490000D02*
X211489630Y-127126000D01*
X211529630Y-102498000D02*
X211529630Y-127118000D01*
X211569630Y-102507000D02*
X211569630Y-127109000D01*
X211609630Y-102515000D02*
X211609630Y-127101000D01*
X211649630Y-102524000D02*
X211649630Y-127092000D01*
X211689630Y-102533000D02*
X211689630Y-112568000D01*
X211689630Y-117048000D02*
X211689630Y-127083000D01*
X211729630Y-102542000D02*
X211729630Y-112568000D01*
X211729630Y-117048000D02*
X211729630Y-127074000D01*
X211769630Y-102551000D02*
X211769630Y-112568000D01*
X211769630Y-117048000D02*
X211769630Y-127065000D01*
X211809630Y-102561000D02*
X211809630Y-112568000D01*
X211809630Y-117048000D02*
X211809630Y-127055000D01*
X211849630Y-102570000D02*
X211849630Y-112568000D01*
X211849630Y-117048000D02*
X211849630Y-127046000D01*
X211889630Y-102580000D02*
X211889630Y-112568000D01*
X211889630Y-117048000D02*
X211889630Y-127036000D01*
X211929630Y-102589000D02*
X211929630Y-112568000D01*
X211929630Y-117048000D02*
X211929630Y-127027000D01*
X211969630Y-102599000D02*
X211969630Y-112568000D01*
X211969630Y-117048000D02*
X211969630Y-127017000D01*
X212009630Y-102609000D02*
X212009630Y-112568000D01*
X212009630Y-117048000D02*
X212009630Y-127007000D01*
X212049630Y-102619000D02*
X212049630Y-112568000D01*
X212049630Y-117048000D02*
X212049630Y-126997000D01*
X212089630Y-102630000D02*
X212089630Y-112568000D01*
X212089630Y-117048000D02*
X212089630Y-126986000D01*
X212129630Y-102640000D02*
X212129630Y-112568000D01*
X212129630Y-117048000D02*
X212129630Y-126976000D01*
X212169630Y-102651000D02*
X212169630Y-112568000D01*
X212169630Y-117048000D02*
X212169630Y-126965000D01*
X212209630Y-102661000D02*
X212209630Y-112568000D01*
X212209630Y-117048000D02*
X212209630Y-126955000D01*
X212249630Y-102672000D02*
X212249630Y-112568000D01*
X212249630Y-117048000D02*
X212249630Y-126944000D01*
X212289630Y-102683000D02*
X212289630Y-112568000D01*
X212289630Y-117048000D02*
X212289630Y-126933000D01*
X212329630Y-102694000D02*
X212329630Y-112568000D01*
X212329630Y-117048000D02*
X212329630Y-126922000D01*
X212369630Y-102705000D02*
X212369630Y-112568000D01*
X212369630Y-117048000D02*
X212369630Y-126911000D01*
X212409630Y-102717000D02*
X212409630Y-112568000D01*
X212409630Y-117048000D02*
X212409630Y-126899000D01*
X212449630Y-102728000D02*
X212449630Y-112568000D01*
X212449630Y-117048000D02*
X212449630Y-126888000D01*
X212489630Y-102740000D02*
X212489630Y-112568000D01*
X212489630Y-117048000D02*
X212489630Y-126876000D01*
X212529630Y-102752000D02*
X212529630Y-112568000D01*
X212529630Y-117048000D02*
X212529630Y-126864000D01*
X212569630Y-102764000D02*
X212569630Y-112568000D01*
X212569630Y-117048000D02*
X212569630Y-126852000D01*
X212609630Y-102776000D02*
X212609630Y-112568000D01*
X212609630Y-117048000D02*
X212609630Y-126840000D01*
X212649630Y-102788000D02*
X212649630Y-112568000D01*
X212649630Y-117048000D02*
X212649630Y-126828000D01*
X212689630Y-102801000D02*
X212689630Y-112568000D01*
X212689630Y-117048000D02*
X212689630Y-126815000D01*
X212729630Y-102813000D02*
X212729630Y-112568000D01*
X212729630Y-117048000D02*
X212729630Y-126803000D01*
X212769630Y-102826000D02*
X212769630Y-112568000D01*
X212769630Y-117048000D02*
X212769630Y-126790000D01*
X212809630Y-102839000D02*
X212809630Y-112568000D01*
X212809630Y-117048000D02*
X212809630Y-126777000D01*
X212849630Y-102852000D02*
X212849630Y-112568000D01*
X212849630Y-117048000D02*
X212849630Y-126764000D01*
X212889630Y-102865000D02*
X212889630Y-112568000D01*
X212889630Y-117048000D02*
X212889630Y-126751000D01*
X212929630Y-102878000D02*
X212929630Y-112568000D01*
X212929630Y-117048000D02*
X212929630Y-126738000D01*
X212969630Y-102892000D02*
X212969630Y-112568000D01*
X212969630Y-117048000D02*
X212969630Y-126724000D01*
X213009630Y-102905000D02*
X213009630Y-112568000D01*
X213009630Y-117048000D02*
X213009630Y-126711000D01*
X213049630Y-102919000D02*
X213049630Y-112568000D01*
X213049630Y-117048000D02*
X213049630Y-126697000D01*
X213089630Y-102933000D02*
X213089630Y-112568000D01*
X213089630Y-117048000D02*
X213089630Y-126683000D01*
X213129630Y-102947000D02*
X213129630Y-112568000D01*
X213129630Y-117048000D02*
X213129630Y-126669000D01*
X213169630Y-102961000D02*
X213169630Y-112568000D01*
X213169630Y-117048000D02*
X213169630Y-126655000D01*
X213209630Y-102975000D02*
X213209630Y-112568000D01*
X213209630Y-117048000D02*
X213209630Y-126641000D01*
X213249630Y-102990000D02*
X213249630Y-112568000D01*
X213249630Y-117048000D02*
X213249630Y-126626000D01*
X213289630Y-103005000D02*
X213289630Y-112568000D01*
X213289630Y-117048000D02*
X213289630Y-126611000D01*
X213329630Y-103019000D02*
X213329630Y-112568000D01*
X213329630Y-117048000D02*
X213329630Y-126597000D01*
X213369630Y-103034000D02*
X213369630Y-112568000D01*
X213369630Y-117048000D02*
X213369630Y-126582000D01*
X213409630Y-103049000D02*
X213409630Y-112568000D01*
X213409630Y-117048000D02*
X213409630Y-126567000D01*
X213449630Y-103065000D02*
X213449630Y-112568000D01*
X213449630Y-117048000D02*
X213449630Y-126551000D01*
X213489630Y-103080000D02*
X213489630Y-112568000D01*
X213489630Y-117048000D02*
X213489630Y-126536000D01*
X213529630Y-103096000D02*
X213529630Y-112568000D01*
X213529630Y-117048000D02*
X213529630Y-126520000D01*
X213569630Y-103111000D02*
X213569630Y-112568000D01*
X213569630Y-117048000D02*
X213569630Y-126505000D01*
X213609630Y-103127000D02*
X213609630Y-112568000D01*
X213609630Y-117048000D02*
X213609630Y-126489000D01*
X213649630Y-103143000D02*
X213649630Y-112568000D01*
X213649630Y-117048000D02*
X213649630Y-126473000D01*
X213689630Y-103160000D02*
X213689630Y-112568000D01*
X213689630Y-117048000D02*
X213689630Y-126456000D01*
X213729630Y-103176000D02*
X213729630Y-112568000D01*
X213729630Y-117048000D02*
X213729630Y-126440000D01*
X213769630Y-103193000D02*
X213769630Y-112568000D01*
X213769630Y-117048000D02*
X213769630Y-126423000D01*
X213809630Y-103209000D02*
X213809630Y-112568000D01*
X213809630Y-117048000D02*
X213809630Y-126407000D01*
X213849630Y-103226000D02*
X213849630Y-112568000D01*
X213849630Y-117048000D02*
X213849630Y-126390000D01*
X213889630Y-103243000D02*
X213889630Y-112568000D01*
X213889630Y-117048000D02*
X213889630Y-126373000D01*
X213929630Y-103260000D02*
X213929630Y-112568000D01*
X213929630Y-117048000D02*
X213929630Y-126356000D01*
X213969630Y-103278000D02*
X213969630Y-112568000D01*
X213969630Y-117048000D02*
X213969630Y-126338000D01*
X214009630Y-103295000D02*
X214009630Y-112568000D01*
X214009630Y-117048000D02*
X214009630Y-126321000D01*
X214049630Y-103313000D02*
X214049630Y-112568000D01*
X214049630Y-117048000D02*
X214049630Y-126303000D01*
X214089630Y-103331000D02*
X214089630Y-112568000D01*
X214089630Y-117048000D02*
X214089630Y-126285000D01*
X214129630Y-103349000D02*
X214129630Y-112568000D01*
X214129630Y-117048000D02*
X214129630Y-126267000D01*
X214169630Y-103367000D02*
X214169630Y-112568000D01*
X214169630Y-117048000D02*
X214169630Y-126249000D01*
X214209630Y-103385000D02*
X214209630Y-112568000D01*
X214209630Y-117048000D02*
X214209630Y-126231000D01*
X214249630Y-103404000D02*
X214249630Y-112568000D01*
X214249630Y-117048000D02*
X214249630Y-126212000D01*
X214289630Y-103422000D02*
X214289630Y-112568000D01*
X214289630Y-117048000D02*
X214289630Y-126194000D01*
X214329630Y-103441000D02*
X214329630Y-112568000D01*
X214329630Y-117048000D02*
X214329630Y-126175000D01*
X214369630Y-103460000D02*
X214369630Y-112568000D01*
X214369630Y-117048000D02*
X214369630Y-126156000D01*
X214409630Y-103479000D02*
X214409630Y-112568000D01*
X214409630Y-117048000D02*
X214409630Y-126137000D01*
X214449630Y-103499000D02*
X214449630Y-112568000D01*
X214449630Y-117048000D02*
X214449630Y-126117000D01*
X214489630Y-103518000D02*
X214489630Y-112568000D01*
X214489630Y-117048000D02*
X214489630Y-126098000D01*
X214529630Y-103538000D02*
X214529630Y-112568000D01*
X214529630Y-117048000D02*
X214529630Y-126078000D01*
X214569630Y-103558000D02*
X214569630Y-112568000D01*
X214569630Y-117048000D02*
X214569630Y-126058000D01*
X214609630Y-103578000D02*
X214609630Y-112568000D01*
X214609630Y-117048000D02*
X214609630Y-126038000D01*
X214649630Y-103598000D02*
X214649630Y-112568000D01*
X214649630Y-117048000D02*
X214649630Y-126018000D01*
X214689630Y-103619000D02*
X214689630Y-112568000D01*
X214689630Y-117048000D02*
X214689630Y-125997000D01*
X214729630Y-103639000D02*
X214729630Y-112568000D01*
X214729630Y-117048000D02*
X214729630Y-125977000D01*
X214769630Y-103660000D02*
X214769630Y-112568000D01*
X214769630Y-117048000D02*
X214769630Y-125956000D01*
X214809630Y-103681000D02*
X214809630Y-112568000D01*
X214809630Y-117048000D02*
X214809630Y-125935000D01*
X214849630Y-103702000D02*
X214849630Y-112568000D01*
X214849630Y-117048000D02*
X214849630Y-125914000D01*
X214889630Y-103724000D02*
X214889630Y-112568000D01*
X214889630Y-117048000D02*
X214889630Y-125892000D01*
X214929630Y-103745000D02*
X214929630Y-112568000D01*
X214929630Y-117048000D02*
X214929630Y-125871000D01*
X214969630Y-103767000D02*
X214969630Y-112568000D01*
X214969630Y-117048000D02*
X214969630Y-125849000D01*
X215009630Y-103789000D02*
X215009630Y-112568000D01*
X215009630Y-117048000D02*
X215009630Y-125827000D01*
X215049630Y-103811000D02*
X215049630Y-112568000D01*
X215049630Y-117048000D02*
X215049630Y-125805000D01*
X215089630Y-103833000D02*
X215089630Y-112568000D01*
X215089630Y-117048000D02*
X215089630Y-125783000D01*
X215129630Y-103855000D02*
X215129630Y-112568000D01*
X215129630Y-117048000D02*
X215129630Y-125761000D01*
X215169630Y-103878000D02*
X215169630Y-112568000D01*
X215169630Y-117048000D02*
X215169630Y-125738000D01*
X215209630Y-103901000D02*
X215209630Y-112568000D01*
X215209630Y-117048000D02*
X215209630Y-125715000D01*
X215249630Y-103924000D02*
X215249630Y-112568000D01*
X215249630Y-117048000D02*
X215249630Y-125692000D01*
X215289630Y-103947000D02*
X215289630Y-112568000D01*
X215289630Y-117048000D02*
X215289630Y-125669000D01*
X215329630Y-103971000D02*
X215329630Y-112568000D01*
X215329630Y-117048000D02*
X215329630Y-125645000D01*
X215369630Y-103994000D02*
X215369630Y-112568000D01*
X215369630Y-117048000D02*
X215369630Y-125622000D01*
X215409630Y-104018000D02*
X215409630Y-112568000D01*
X215409630Y-117048000D02*
X215409630Y-125598000D01*
X215449630Y-104042000D02*
X215449630Y-112568000D01*
X215449630Y-117048000D02*
X215449630Y-125574000D01*
X215489630Y-104066000D02*
X215489630Y-112568000D01*
X215489630Y-117048000D02*
X215489630Y-125550000D01*
X215529630Y-104091000D02*
X215529630Y-112568000D01*
X215529630Y-117048000D02*
X215529630Y-125525000D01*
X215569630Y-104116000D02*
X215569630Y-112568000D01*
X215569630Y-117048000D02*
X215569630Y-125500000D01*
X215609630Y-104140000D02*
X215609630Y-112568000D01*
X215609630Y-117048000D02*
X215609630Y-125476000D01*
X215649630Y-104165000D02*
X215649630Y-112568000D01*
X215649630Y-117048000D02*
X215649630Y-125451000D01*
X215689630Y-104191000D02*
X215689630Y-112568000D01*
X215689630Y-117048000D02*
X215689630Y-125425000D01*
X215729630Y-104216000D02*
X215729630Y-112568000D01*
X215729630Y-117048000D02*
X215729630Y-125400000D01*
X215769630Y-104242000D02*
X215769630Y-112568000D01*
X215769630Y-117048000D02*
X215769630Y-125374000D01*
X215809630Y-104268000D02*
X215809630Y-112568000D01*
X215809630Y-117048000D02*
X215809630Y-125348000D01*
X215849630Y-104294000D02*
X215849630Y-112568000D01*
X215849630Y-117048000D02*
X215849630Y-125322000D01*
X215889630Y-104320000D02*
X215889630Y-112568000D01*
X215889630Y-117048000D02*
X215889630Y-125296000D01*
X215929630Y-104347000D02*
X215929630Y-112568000D01*
X215929630Y-117048000D02*
X215929630Y-125269000D01*
X215969630Y-104374000D02*
X215969630Y-112568000D01*
X215969630Y-117048000D02*
X215969630Y-125242000D01*
X216009630Y-104401000D02*
X216009630Y-112568000D01*
X216009630Y-117048000D02*
X216009630Y-125215000D01*
X216049630Y-104428000D02*
X216049630Y-112568000D01*
X216049630Y-117048000D02*
X216049630Y-125188000D01*
X216089630Y-104455000D02*
X216089630Y-112568000D01*
X216089630Y-117048000D02*
X216089630Y-125161000D01*
X216129630Y-104483000D02*
X216129630Y-112568000D01*
X216129630Y-117048000D02*
X216129630Y-125133000D01*
X216169630Y-104511000D02*
X216169630Y-125105000D01*
X216209630Y-104539000D02*
X216209630Y-125077000D01*
X216249630Y-104567000D02*
X216249630Y-125049000D01*
X216289630Y-104596000D02*
X216289630Y-125020000D01*
X216329630Y-104625000D02*
X216329630Y-124991000D01*
X216369630Y-104654000D02*
X216369630Y-124962000D01*
X216409630Y-104683000D02*
X216409630Y-124933000D01*
X216449630Y-104713000D02*
X216449630Y-124903000D01*
X216489630Y-104743000D02*
X216489630Y-124873000D01*
X216529630Y-104773000D02*
X216529630Y-124843000D01*
X216569630Y-104803000D02*
X216569630Y-124813000D01*
X216609630Y-104833000D02*
X216609630Y-124783000D01*
X216649630Y-104864000D02*
X216649630Y-124752000D01*
X216689630Y-104895000D02*
X216689630Y-124721000D01*
X216729630Y-104927000D02*
X216729630Y-124689000D01*
X216769630Y-104958000D02*
X216769630Y-124658000D01*
X216809630Y-104990000D02*
X216809630Y-124626000D01*
X216849630Y-105022000D02*
X216849630Y-124594000D01*
X216889630Y-105055000D02*
X216889630Y-124561000D01*
X216929630Y-105087000D02*
X216929630Y-124529000D01*
X216969630Y-105120000D02*
X216969630Y-124496000D01*
X217009630Y-105153000D02*
X217009630Y-124463000D01*
X217049630Y-105187000D02*
X217049630Y-124429000D01*
X217089630Y-105221000D02*
X217089630Y-124395000D01*
X217128630Y-105255000D02*
X217128630Y-124361000D01*
X217168630Y-105289000D02*
X217168630Y-124327000D01*
X217208630Y-105324000D02*
X217208630Y-124292000D01*
X217248630Y-105358000D02*
X217248630Y-124258000D01*
X217288630Y-105394000D02*
X217288630Y-124222000D01*
X217328630Y-105429000D02*
X217328630Y-124187000D01*
X217368630Y-105465000D02*
X217368630Y-124151000D01*
X217408630Y-105501000D02*
X217408630Y-124115000D01*
X217448630Y-105538000D02*
X217448630Y-124078000D01*
X217488630Y-105574000D02*
X217488630Y-124042000D01*
X217528630Y-105611000D02*
X217528630Y-124005000D01*
X217568630Y-105649000D02*
X217568630Y-123967000D01*
X217608630Y-105687000D02*
X217608630Y-123929000D01*
X217648630Y-105725000D02*
X217648630Y-123891000D01*
X217688630Y-105763000D02*
X217688630Y-123853000D01*
X217728630Y-105802000D02*
X217728630Y-123814000D01*
X217768630Y-105841000D02*
X217768630Y-123775000D01*
X217808630Y-105880000D02*
X217808630Y-123736000D01*
X217848630Y-105920000D02*
X217848630Y-123696000D01*
X217888630Y-105960000D02*
X217888630Y-123656000D01*
X217928630Y-106001000D02*
X217928630Y-123615000D01*
X217968630Y-106042000D02*
X217968630Y-123574000D01*
X218008630Y-106083000D02*
X218008630Y-123533000D01*
X218048630Y-106125000D02*
X218048630Y-123491000D01*
X218088630Y-106167000D02*
X218088630Y-123449000D01*
X218128630Y-106209000D02*
X218128630Y-123407000D01*
X218168630Y-106252000D02*
X218168630Y-123364000D01*
X218208630Y-106295000D02*
X218208630Y-123321000D01*
X218248630Y-106339000D02*
X218248630Y-123277000D01*
X218288630Y-106383000D02*
X218288630Y-123233000D01*
X218328630Y-106427000D02*
X218328630Y-123189000D01*
X218368630Y-106472000D02*
X218368630Y-123144000D01*
X218408630Y-106517000D02*
X218408630Y-123099000D01*
X218448630Y-106563000D02*
X218448630Y-123053000D01*
X218488630Y-106609000D02*
X218488630Y-123007000D01*
X218528630Y-106656000D02*
X218528630Y-122960000D01*
X218568630Y-106703000D02*
X218568630Y-122913000D01*
X218608630Y-106750000D02*
X218608630Y-122866000D01*
X218648630Y-106799000D02*
X218648630Y-122817000D01*
X218688630Y-106847000D02*
X218688630Y-122769000D01*
X218728630Y-106896000D02*
X218728630Y-122720000D01*
X218768630Y-106946000D02*
X218768630Y-122670000D01*
X218808630Y-106996000D02*
X218808630Y-122620000D01*
X218848630Y-107046000D02*
X218848630Y-122570000D01*
X218888630Y-107097000D02*
X218888630Y-122519000D01*
X218928630Y-107149000D02*
X218928630Y-122467000D01*
X218968630Y-107201000D02*
X218968630Y-122415000D01*
X219008630Y-107254000D02*
X219008630Y-122362000D01*
X219048630Y-107308000D02*
X219048630Y-122308000D01*
X219088630Y-107362000D02*
X219088630Y-122254000D01*
X219128630Y-107416000D02*
X219128630Y-122200000D01*
X219168630Y-107471000D02*
X219168630Y-122145000D01*
X219208630Y-107527000D02*
X219208630Y-122089000D01*
X219248630Y-107584000D02*
X219248630Y-122032000D01*
X219288630Y-107641000D02*
X219288630Y-121975000D01*
X219328630Y-107699000D02*
X219328630Y-121917000D01*
X219368630Y-107757000D02*
X219368630Y-121859000D01*
X219408630Y-107817000D02*
X219408630Y-121799000D01*
X219448630Y-107877000D02*
X219448630Y-121739000D01*
X219488630Y-107937000D02*
X219488630Y-121679000D01*
X219528630Y-107999000D02*
X219528630Y-121617000D01*
X219568630Y-108061000D02*
X219568630Y-121555000D01*
X219608630Y-108124000D02*
X219608630Y-121492000D01*
X219648630Y-108188000D02*
X219648630Y-121428000D01*
X219688630Y-108253000D02*
X219688630Y-121363000D01*
X219728630Y-108319000D02*
X219728630Y-121297000D01*
X219768630Y-108385000D02*
X219768630Y-121231000D01*
X219808630Y-108453000D02*
X219808630Y-121163000D01*
X219848630Y-108522000D02*
X219848630Y-121094000D01*
X219888630Y-108591000D02*
X219888630Y-121025000D01*
X219928630Y-108662000D02*
X219928630Y-120954000D01*
X219968630Y-108733000D02*
X219968630Y-120883000D01*
X220008630Y-108806000D02*
X220008630Y-120810000D01*
X220048630Y-108880000D02*
X220048630Y-120736000D01*
X220088630Y-108955000D02*
X220088630Y-120661000D01*
X220128630Y-109032000D02*
X220128630Y-120584000D01*
X220168630Y-109109000D02*
X220168630Y-120507000D01*
X220208630Y-109188000D02*
X220208630Y-120428000D01*
X220248630Y-109269000D02*
X220248630Y-120347000D01*
X220288630Y-109351000D02*
X220288630Y-120265000D01*
X220328630Y-109434000D02*
X220328630Y-120182000D01*
X220368630Y-109519000D02*
X220368630Y-120097000D01*
X220408630Y-109606000D02*
X220408630Y-120010000D01*
X220448630Y-109694000D02*
X220448630Y-119922000D01*
X220488630Y-109785000D02*
X220488630Y-119831000D01*
X220528630Y-109877000D02*
X220528630Y-119739000D01*
X220568630Y-109972000D02*
X220568630Y-119644000D01*
X220608630Y-110068000D02*
X220608630Y-119548000D01*
X220648630Y-110167000D02*
X220648630Y-119449000D01*
X220688630Y-110269000D02*
X220688630Y-119347000D01*
X220728630Y-110373000D02*
X220728630Y-119243000D01*
X220768630Y-110480000D02*
X220768630Y-119136000D01*
X220808630Y-110590000D02*
X220808630Y-119026000D01*
X220848630Y-110703000D02*
X220848630Y-118913000D01*
X220888630Y-110820000D02*
X220888630Y-118796000D01*
X220928630Y-110941000D02*
X220928630Y-118675000D01*
X220968630Y-111066000D02*
X220968630Y-118550000D01*
X221008630Y-111195000D02*
X221008630Y-118421000D01*
X221048630Y-111330000D02*
X221048630Y-118286000D01*
X221088630Y-111471000D02*
X221088630Y-118145000D01*
X221128630Y-111619000D02*
X221128630Y-117997000D01*
X221168630Y-111774000D02*
X221168630Y-117842000D01*
X221208630Y-111938000D02*
X221208630Y-117678000D01*
X221248630Y-112112000D02*
X221248630Y-117504000D01*
X221288630Y-112299000D02*
X221288630Y-117317000D01*
X221328630Y-112501000D02*
X221328630Y-117115000D01*
X221368630Y-112724000D02*
X221368630Y-116892000D01*
X221408630Y-112973000D02*
X221408630Y-116643000D01*
X221448630Y-113262000D02*
X221448630Y-116354000D01*
X221488630Y-113618000D02*
X221488630Y-115998000D01*
X221528630Y-114137000D02*
X221528630Y-115479000D01*
X221548630Y-114808000D02*
G75*
G03*
X221548630Y-114808000I-12620000J0D01*
G01*
D14*
%TO.C,Q201*%
X211505800Y-76276200D02*
X211505800Y-82169000D01*
X211505800Y-82169000D02*
X211948447Y-82169000D01*
X211896960Y-76276200D02*
X211505800Y-76276200D01*
X213353800Y-82651600D02*
X213353800Y-84099400D01*
X214014200Y-82651600D02*
X214014200Y-84099400D01*
X215753800Y-82651600D02*
X215753800Y-84099400D01*
X216414200Y-82651600D02*
X216414200Y-84099400D01*
X217819553Y-82169000D02*
X218262200Y-82169000D01*
X218262200Y-76276200D02*
X217871040Y-76276200D01*
X218262200Y-82169000D02*
X218262200Y-76276200D01*
D13*
%TO.C,IC1*%
X139306000Y-92543000D02*
X141031000Y-92543000D01*
X141381000Y-92563000D02*
X145131000Y-92563000D01*
X141381000Y-96413000D02*
X141381000Y-92563000D01*
X145131000Y-92563000D02*
X145131000Y-96413000D01*
X145131000Y-96413000D02*
X141381000Y-96413000D01*
D11*
%TO.C,R3*%
X117763936Y-83291000D02*
X119218064Y-83291000D01*
X117763936Y-85111000D02*
X119218064Y-85111000D01*
%TO.C,R205*%
X195733936Y-103532000D02*
X196188064Y-103532000D01*
X195733936Y-105002000D02*
X196188064Y-105002000D01*
%TO.C,C200*%
X189210733Y-92073000D02*
X189503267Y-92073000D01*
X189210733Y-93093000D02*
X189503267Y-93093000D01*
D12*
%TO.C,U2*%
X124266000Y-83548000D02*
X124266000Y-83798000D01*
X124266000Y-87398000D02*
X124266000Y-87648000D01*
X124266000Y-87648000D02*
X131766000Y-87648000D01*
X131766000Y-83548000D02*
X124266000Y-83548000D01*
X131766000Y-83798000D02*
X131766000Y-83548000D01*
X131766000Y-87648000D02*
X131766000Y-87398000D01*
D13*
X121816000Y-84328000D02*
G75*
G03*
X121816000Y-84328000I-100000J0D01*
G01*
D12*
%TO.C,U3*%
X124266000Y-89898000D02*
X124266000Y-90148000D01*
X124266000Y-93748000D02*
X124266000Y-93998000D01*
X124266000Y-93998000D02*
X131766000Y-93998000D01*
X131766000Y-89898000D02*
X124266000Y-89898000D01*
X131766000Y-90148000D02*
X131766000Y-89898000D01*
X131766000Y-93998000D02*
X131766000Y-93748000D01*
D13*
X121816000Y-90678000D02*
G75*
G03*
X121816000Y-90678000I-100000J0D01*
G01*
D12*
%TO.C,U1*%
X183458750Y-96780500D02*
X183510750Y-96985500D01*
X179593750Y-96780500D02*
X183458750Y-96780500D01*
X179593750Y-96780500D02*
X179541750Y-96985500D01*
X179263750Y-98075500D02*
G75*
G03*
X183788750Y-98075500I2262500J0D01*
G01*
D13*
X184639250Y-97885500D02*
G75*
G03*
X184639250Y-97885500I-100000J0D01*
G01*
D11*
%TO.C,R200*%
X173377776Y-85329500D02*
X173887224Y-85329500D01*
X173377776Y-86374500D02*
X173887224Y-86374500D01*
%TO.C,U200*%
X167015000Y-96520000D02*
X167015000Y-99970000D01*
X167015000Y-96520000D02*
X167015000Y-94570000D01*
X175885000Y-96520000D02*
X175885000Y-98470000D01*
X175885000Y-96520000D02*
X175885000Y-94570000D01*
D14*
%TO.C,Q200*%
X202107800Y-76276200D02*
X202107800Y-82169000D01*
X202107800Y-82169000D02*
X202550447Y-82169000D01*
X202498960Y-76276200D02*
X202107800Y-76276200D01*
X203955800Y-82651600D02*
X203955800Y-84099400D01*
X204616200Y-82651600D02*
X204616200Y-84099400D01*
X206355800Y-82651600D02*
X206355800Y-84099400D01*
X207016200Y-82651600D02*
X207016200Y-84099400D01*
X208421553Y-82169000D02*
X208864200Y-82169000D01*
X208864200Y-76276200D02*
X208473040Y-76276200D01*
X208864200Y-82169000D02*
X208864200Y-76276200D01*
D11*
%TO.C,J200*%
X167902000Y-82658000D02*
X168902000Y-82658000D01*
X168902000Y-82658000D02*
X168402000Y-81658000D01*
X168402000Y-81658000D02*
X167902000Y-82658000D01*
X163192000Y-81268000D02*
X163192000Y-72148000D01*
X168892000Y-81268000D02*
X168892000Y-79958000D01*
X178692000Y-81268000D02*
X163192000Y-81268000D01*
X164492000Y-79958000D02*
X164492000Y-73458000D01*
X168892000Y-79958000D02*
X164492000Y-79958000D01*
X172992000Y-79958000D02*
X172992000Y-81268000D01*
X172992000Y-79958000D02*
X172992000Y-79958000D01*
X177392000Y-79958000D02*
X172992000Y-79958000D01*
X164492000Y-73458000D02*
X177392000Y-73458000D01*
X177392000Y-73458000D02*
X177392000Y-79958000D01*
X163192000Y-72148000D02*
X178692000Y-72148000D01*
X178692000Y-72148000D02*
X178692000Y-81268000D01*
%TO.C,D1*%
X143175000Y-99442000D02*
X143175000Y-102742000D01*
X143175000Y-99442000D02*
X148685000Y-99442000D01*
X143175000Y-102742000D02*
X148685000Y-102742000D01*
%TO.C,K2*%
X132552500Y-107177602D02*
X133822500Y-107177602D01*
X133187500Y-106542602D02*
X133187500Y-107812602D01*
X133949500Y-104500602D02*
X133949500Y-126354600D01*
X149803500Y-104500602D02*
X133949500Y-104500602D01*
X149803500Y-104500602D02*
X149803500Y-126354600D01*
X149803500Y-126354600D02*
X133949500Y-126354600D01*
%TO.C,R203*%
X163844500Y-96622776D02*
X163844500Y-97132224D01*
X162799500Y-96622776D02*
X162799500Y-97132224D01*
%TO.C,C1*%
X115912000Y-86514000D02*
X111672000Y-86514000D01*
X115912000Y-86514000D02*
X115912000Y-96754000D01*
X111672000Y-86514000D02*
X111672000Y-96754000D01*
X115912000Y-96754000D02*
X111672000Y-96754000D01*
%TO.C,R4*%
X112810936Y-101452000D02*
X114265064Y-101452000D01*
X112810936Y-103272000D02*
X114265064Y-103272000D01*
D12*
%TO.C,J1*%
X110236000Y-116457500D02*
X102616000Y-116457500D01*
X102616000Y-84777500D02*
X102616000Y-116457500D01*
X102616000Y-84777500D02*
X110236000Y-84777500D01*
X110236000Y-84777500D02*
X110236000Y-116457500D01*
D13*
X107286000Y-84127500D02*
G75*
G03*
X107286000Y-84127500I-100000J0D01*
G01*
D11*
%TO.C,D200*%
X194791000Y-86542000D02*
X193321000Y-86542000D01*
X193321000Y-86542000D02*
X193321000Y-89002000D01*
X194791000Y-89002000D02*
X194791000Y-86542000D01*
%TD*%
M02*
