%TF.GenerationSoftware,KiCad,Pcbnew,7.0.0-1.fc36*%
%TF.CreationDate,2023-03-17T18:56:22-05:00*%
%TF.ProjectId,2275Mod,32323735-4d6f-4642-9e6b-696361645f70,rev?*%
%TF.SameCoordinates,Original*%
%TF.FileFunction,Plated,1,2,PTH,Drill*%
%TF.FilePolarity,Positive*%
%FSLAX46Y46*%
G04 Gerber Fmt 4.6, Leading zero omitted, Abs format (unit mm)*
G04 Created by KiCad (PCBNEW 7.0.0-1.fc36) date 2023-03-17 18:56:22*
%MOMM*%
%LPD*%
G01*
G04 APERTURE LIST*
%TA.AperFunction,ViaDrill*%
%ADD10C,0.400000*%
%TD*%
%TA.AperFunction,ComponentDrill*%
%ADD11C,0.800000*%
%TD*%
%TA.AperFunction,ComponentDrill*%
%ADD12C,0.830000*%
%TD*%
%TA.AperFunction,ComponentDrill*%
%ADD13C,0.850000*%
%TD*%
%TA.AperFunction,ComponentDrill*%
%ADD14C,1.000000*%
%TD*%
%TA.AperFunction,ComponentDrill*%
%ADD15C,1.200000*%
%TD*%
%TA.AperFunction,ComponentDrill*%
%ADD16C,1.300000*%
%TD*%
%TA.AperFunction,ComponentDrill*%
%ADD17C,1.524000*%
%TD*%
%TA.AperFunction,ComponentDrill*%
%ADD18C,2.000000*%
%TD*%
G04 APERTURE END LIST*
D10*
X103886000Y-101092000D03*
X106019600Y-119989600D03*
X106172000Y-77622400D03*
X114300000Y-106172000D03*
X115824000Y-100076000D03*
X117094000Y-108458000D03*
X117856000Y-99314000D03*
X120899701Y-96515701D03*
X121158000Y-90678000D03*
X122174000Y-75895200D03*
X123190000Y-95250000D03*
X129997200Y-104190800D03*
X133400800Y-76098400D03*
X136906000Y-93218000D03*
X137668000Y-100838000D03*
X141986000Y-86868000D03*
X153416000Y-96266000D03*
X157784800Y-106984800D03*
X168910000Y-91186000D03*
X168910000Y-118364000D03*
X169926000Y-97282000D03*
X172715701Y-100833701D03*
X181610000Y-101600000D03*
X182372000Y-103378000D03*
X183794400Y-80111600D03*
X191516000Y-82296000D03*
X194056000Y-85344000D03*
X195834000Y-83566000D03*
X196850000Y-100584000D03*
X200152000Y-93370400D03*
X200914000Y-82296000D03*
X211836000Y-84582000D03*
X219608400Y-89611200D03*
D11*
%TO.C,C3*%
X187770888Y-98044000D03*
X190270888Y-98044000D03*
D12*
%TO.C,U1*%
X180256250Y-97885500D03*
X181526250Y-97885500D03*
X182796250Y-97885500D03*
D13*
%TO.C,PS1*%
X154167500Y-123104500D03*
X159247500Y-123104500D03*
X179567500Y-105324500D03*
X184647500Y-105324500D03*
X184647500Y-123104500D03*
D14*
%TO.C,C1*%
X113792000Y-87884000D03*
X113792000Y-95384000D03*
%TO.C,J200*%
X168402000Y-75438000D03*
X168402000Y-77978000D03*
X170942000Y-75438000D03*
X170942000Y-77978000D03*
X173482000Y-75438000D03*
X173482000Y-77978000D03*
%TO.C,J201*%
X196215000Y-75692000D03*
X196215000Y-78232000D03*
X196215000Y-80772000D03*
D15*
%TO.C,K1*%
X122047000Y-99917000D03*
X122047000Y-114903000D03*
X122047000Y-119983000D03*
X122047000Y-125063000D03*
X129540000Y-99917000D03*
X129540000Y-114903000D03*
X129540000Y-119983000D03*
X129540000Y-125063000D03*
%TO.C,C2*%
X145839246Y-81280000D03*
X153339246Y-81280000D03*
D16*
%TO.C,K2*%
X135876501Y-109177604D03*
X135876501Y-120477599D03*
X141876500Y-107177602D03*
X147876499Y-109177604D03*
X147876499Y-120477599D03*
D17*
%TO.C,J1*%
X107186000Y-86757500D03*
X107186000Y-90717500D03*
X107186000Y-94677500D03*
X107186000Y-98637500D03*
X107186000Y-102597500D03*
X107186000Y-106557500D03*
X107186000Y-110517500D03*
X107186000Y-114477500D03*
D18*
%TO.C,C201*%
X203928630Y-114808000D03*
X213928630Y-114808000D03*
M02*
