%TF.GenerationSoftware,KiCad,Pcbnew,7.0.0-1.fc36*%
%TF.CreationDate,2023-03-23T22:09:31-05:00*%
%TF.ProjectId,2275Mod,32323735-4d6f-4642-9e6b-696361645f70,rev?*%
%TF.SameCoordinates,Original*%
%TF.FileFunction,Soldermask,Top*%
%TF.FilePolarity,Negative*%
%FSLAX46Y46*%
G04 Gerber Fmt 4.6, Leading zero omitted, Abs format (unit mm)*
G04 Created by KiCad (PCBNEW 7.0.0-1.fc36) date 2023-03-23 22:09:31*
%MOMM*%
%LPD*%
G01*
G04 APERTURE LIST*
G04 Aperture macros list*
%AMRoundRect*
0 Rectangle with rounded corners*
0 $1 Rounding radius*
0 $2 $3 $4 $5 $6 $7 $8 $9 X,Y pos of 4 corners*
0 Add a 4 corners polygon primitive as box body*
4,1,4,$2,$3,$4,$5,$6,$7,$8,$9,$2,$3,0*
0 Add four circle primitives for the rounded corners*
1,1,$1+$1,$2,$3*
1,1,$1+$1,$4,$5*
1,1,$1+$1,$6,$7*
1,1,$1+$1,$8,$9*
0 Add four rect primitives between the rounded corners*
20,1,$1+$1,$2,$3,$4,$5,0*
20,1,$1+$1,$4,$5,$6,$7,0*
20,1,$1+$1,$6,$7,$8,$9,0*
20,1,$1+$1,$8,$9,$2,$3,0*%
G04 Aperture macros list end*
%ADD10RoundRect,0.250000X-0.350000X-0.450000X0.350000X-0.450000X0.350000X0.450000X-0.350000X0.450000X0*%
%ADD11RoundRect,0.250000X0.350000X0.450000X-0.350000X0.450000X-0.350000X-0.450000X0.350000X-0.450000X0*%
%ADD12R,2.400000X2.400000*%
%ADD13C,2.400000*%
%ADD14R,1.600000X1.600000*%
%ADD15C,1.600000*%
%ADD16RoundRect,0.237500X-0.250000X-0.237500X0.250000X-0.237500X0.250000X0.237500X-0.250000X0.237500X0*%
%ADD17R,1.700000X1.700000*%
%ADD18O,1.700000X1.700000*%
%ADD19RoundRect,0.150000X0.512500X0.150000X-0.512500X0.150000X-0.512500X-0.150000X0.512500X-0.150000X0*%
%ADD20C,0.990600*%
%ADD21C,0.787400*%
%ADD22R,1.358000X1.358000*%
%ADD23C,1.358000*%
%ADD24RoundRect,0.250000X-0.450000X0.325000X-0.450000X-0.325000X0.450000X-0.325000X0.450000X0.325000X0*%
%ADD25RoundRect,0.237500X-0.237500X0.250000X-0.237500X-0.250000X0.237500X-0.250000X0.237500X0.250000X0*%
%ADD26C,3.700000*%
%ADD27R,3.800000X2.030000*%
%ADD28R,2.030000X3.800000*%
%ADD29R,4.000000X4.000000*%
%ADD30C,4.000000*%
%ADD31R,0.711200X2.514600*%
%ADD32R,5.308600X8.026400*%
%ADD33R,1.725000X0.650000*%
%ADD34RoundRect,0.250000X-0.400000X-0.625000X0.400000X-0.625000X0.400000X0.625000X-0.400000X0.625000X0*%
%ADD35RoundRect,0.237500X-0.300000X-0.237500X0.300000X-0.237500X0.300000X0.237500X-0.300000X0.237500X0*%
%ADD36RoundRect,0.032000X-0.888000X-0.288000X0.888000X-0.288000X0.888000X0.288000X-0.888000X0.288000X0*%
%ADD37R,1.120000X1.120000*%
%ADD38C,1.120000*%
%ADD39RoundRect,0.150000X0.150000X-0.825000X0.150000X0.825000X-0.150000X0.825000X-0.150000X-0.825000X0*%
%ADD40RoundRect,0.250000X-1.000000X-0.650000X1.000000X-0.650000X1.000000X0.650000X-1.000000X0.650000X0*%
%ADD41C,1.808000*%
%ADD42C,2.000000*%
%ADD43R,1.874000X1.874000*%
%ADD44C,1.874000*%
%ADD45RoundRect,0.237500X-0.237500X0.287500X-0.237500X-0.287500X0.237500X-0.287500X0.237500X0.287500X0*%
G04 APERTURE END LIST*
D10*
%TO.C,R202*%
X182769000Y-89154000D03*
X184769000Y-89154000D03*
%TD*%
D11*
%TO.C,R204*%
X184769000Y-92964000D03*
X182769000Y-92964000D03*
%TD*%
D12*
%TO.C,C2*%
X145839245Y-81279999D03*
D13*
X153339246Y-81280000D03*
%TD*%
D14*
%TO.C,C3*%
X187770887Y-98043999D03*
D15*
X190270888Y-98044000D03*
%TD*%
D16*
%TO.C,R201*%
X172720000Y-90043000D03*
X174545000Y-90043000D03*
%TD*%
D11*
%TO.C,R1*%
X119634000Y-87884000D03*
X117634000Y-87884000D03*
%TD*%
D17*
%TO.C,J201*%
X196214999Y-75691999D03*
D18*
X196214999Y-78231999D03*
X196214999Y-80771999D03*
%TD*%
D19*
%TO.C,q1*%
X136271000Y-101600000D03*
X136271000Y-99700000D03*
X133996000Y-100650000D03*
%TD*%
D20*
%TO.C,J2*%
X171602400Y-79425800D03*
X176682400Y-78409800D03*
X176682400Y-80441800D03*
D21*
X172872400Y-80060800D03*
X172872400Y-78790800D03*
X174142400Y-80060800D03*
X174142400Y-78790800D03*
X175412400Y-80060800D03*
X175412400Y-78790800D03*
%TD*%
D22*
%TO.C,PS1*%
X154167499Y-123104499D03*
D23*
X159247500Y-123104500D03*
X184647500Y-123104500D03*
X184647500Y-105324500D03*
X179567500Y-105324500D03*
%TD*%
D24*
%TO.C,D201*%
X198120000Y-86977000D03*
X198120000Y-89027000D03*
%TD*%
D13*
%TO.C,K1*%
X122047000Y-99917000D03*
X129540000Y-99917000D03*
X129540000Y-114903000D03*
X129540000Y-119983000D03*
X129540000Y-125063000D03*
X122047000Y-114903000D03*
X122047000Y-119983000D03*
X122047000Y-125063000D03*
%TD*%
D25*
%TO.C,R5*%
X138811000Y-99775000D03*
X138811000Y-101600000D03*
%TD*%
%TO.C,R6*%
X140970000Y-99798500D03*
X140970000Y-101623500D03*
%TD*%
D16*
%TO.C,R2*%
X112879500Y-98552000D03*
X114704500Y-98552000D03*
%TD*%
D26*
%TO.C,H3*%
X113538000Y-76454000D03*
%TD*%
%TO.C,H1*%
X113538000Y-122682000D03*
%TD*%
D27*
%TO.C,TP3*%
X209499199Y-92557599D03*
%TD*%
D28*
%TO.C,TP1*%
X193395599Y-114096799D03*
%TD*%
D29*
%TO.C,C201*%
X203928629Y-114807999D03*
D30*
X213928630Y-114808000D03*
%TD*%
D26*
%TO.C,H2*%
X217043000Y-99314000D03*
%TD*%
D31*
%TO.C,Q201*%
X213683999Y-85712299D03*
D32*
X214883999Y-77977999D03*
D31*
X216083999Y-85712299D03*
%TD*%
D33*
%TO.C,IC1*%
X140167999Y-93217999D03*
X140167999Y-95757999D03*
X146343999Y-95757999D03*
X146343999Y-93217999D03*
%TD*%
D34*
%TO.C,R3*%
X116941000Y-84201000D03*
X120041000Y-84201000D03*
%TD*%
D10*
%TO.C,R205*%
X194961000Y-104267000D03*
X196961000Y-104267000D03*
%TD*%
D35*
%TO.C,C200*%
X188494500Y-92583000D03*
X190219500Y-92583000D03*
%TD*%
D27*
%TO.C,TP4*%
X204520799Y-98501199D03*
%TD*%
D36*
%TO.C,U2*%
X123331000Y-84328000D03*
X123331000Y-86868000D03*
X132701000Y-86868000D03*
X132701000Y-84328000D03*
%TD*%
%TO.C,U3*%
X123331000Y-90678000D03*
X123331000Y-93218000D03*
X132701000Y-93218000D03*
X132701000Y-90678000D03*
%TD*%
D37*
%TO.C,U1*%
X182796249Y-97885499D03*
D38*
X181526250Y-97885500D03*
X180256250Y-97885500D03*
%TD*%
D16*
%TO.C,R200*%
X172720000Y-85852000D03*
X174545000Y-85852000D03*
%TD*%
D39*
%TO.C,U200*%
X167640000Y-98995000D03*
X168910000Y-98995000D03*
X170180000Y-98995000D03*
X171450000Y-98995000D03*
X172720000Y-98995000D03*
X173990000Y-98995000D03*
X175260000Y-98995000D03*
X175260000Y-94045000D03*
X173990000Y-94045000D03*
X172720000Y-94045000D03*
X171450000Y-94045000D03*
X170180000Y-94045000D03*
X168910000Y-94045000D03*
X167640000Y-94045000D03*
%TD*%
D31*
%TO.C,Q200*%
X204285999Y-85712299D03*
D32*
X205485999Y-77977999D03*
D31*
X206685999Y-85712299D03*
%TD*%
D40*
%TO.C,D1*%
X144685000Y-101092000D03*
X148685000Y-101092000D03*
%TD*%
D41*
%TO.C,K2*%
X141876500Y-107177602D03*
X135876501Y-109177604D03*
X135876501Y-120477599D03*
X147876499Y-120477599D03*
X147876499Y-109177604D03*
%TD*%
D25*
%TO.C,R203*%
X163322000Y-95965000D03*
X163322000Y-97790000D03*
%TD*%
D42*
%TO.C,C1*%
X113792000Y-87884000D03*
X113792000Y-95384000D03*
%TD*%
D34*
%TO.C,R4*%
X111988000Y-102362000D03*
X115088000Y-102362000D03*
%TD*%
D27*
%TO.C,TP2*%
X183997599Y-75387199D03*
%TD*%
D43*
%TO.C,J1*%
X107185999Y-86757499D03*
D44*
X107186000Y-90717500D03*
X107186000Y-94677500D03*
X107186000Y-98637500D03*
X107186000Y-102597500D03*
X107186000Y-106557500D03*
X107186000Y-110517500D03*
X107186000Y-114477500D03*
%TD*%
D45*
%TO.C,D200*%
X194056000Y-87327000D03*
X194056000Y-89077000D03*
%TD*%
M02*
