%TF.GenerationSoftware,KiCad,Pcbnew,7.0.0-1.fc36*%
%TF.CreationDate,2023-03-23T22:09:31-05:00*%
%TF.ProjectId,2275Mod,32323735-4d6f-4642-9e6b-696361645f70,rev?*%
%TF.SameCoordinates,Original*%
%TF.FileFunction,Soldermask,Bot*%
%TF.FilePolarity,Negative*%
%FSLAX46Y46*%
G04 Gerber Fmt 4.6, Leading zero omitted, Abs format (unit mm)*
G04 Created by KiCad (PCBNEW 7.0.0-1.fc36) date 2023-03-23 22:09:31*
%MOMM*%
%LPD*%
G01*
G04 APERTURE LIST*
%ADD10R,2.400000X2.400000*%
%ADD11C,2.400000*%
%ADD12R,1.600000X1.600000*%
%ADD13C,1.600000*%
%ADD14R,1.700000X1.700000*%
%ADD15O,1.700000X1.700000*%
%ADD16C,0.990600*%
%ADD17R,1.358000X1.358000*%
%ADD18C,1.358000*%
%ADD19C,3.700000*%
%ADD20R,4.000000X4.000000*%
%ADD21C,4.000000*%
%ADD22R,1.120000X1.120000*%
%ADD23C,1.120000*%
%ADD24C,1.808000*%
%ADD25C,2.000000*%
%ADD26R,1.874000X1.874000*%
%ADD27C,1.874000*%
G04 APERTURE END LIST*
D10*
%TO.C,C2*%
X145839245Y-81279999D03*
D11*
X153339246Y-81280000D03*
%TD*%
D12*
%TO.C,C3*%
X187770887Y-98043999D03*
D13*
X190270888Y-98044000D03*
%TD*%
D14*
%TO.C,J201*%
X196214999Y-75691999D03*
D15*
X196214999Y-78231999D03*
X196214999Y-80771999D03*
%TD*%
D16*
%TO.C,J2*%
X171602400Y-79425800D03*
X176682400Y-78409800D03*
X176682400Y-80441800D03*
%TD*%
D17*
%TO.C,PS1*%
X154167499Y-123104499D03*
D18*
X159247500Y-123104500D03*
X184647500Y-123104500D03*
X184647500Y-105324500D03*
X179567500Y-105324500D03*
%TD*%
D11*
%TO.C,K1*%
X122047000Y-99917000D03*
X129540000Y-99917000D03*
X129540000Y-114903000D03*
X129540000Y-119983000D03*
X129540000Y-125063000D03*
X122047000Y-114903000D03*
X122047000Y-119983000D03*
X122047000Y-125063000D03*
%TD*%
D19*
%TO.C,H3*%
X113538000Y-76454000D03*
%TD*%
%TO.C,H1*%
X113538000Y-122682000D03*
%TD*%
D20*
%TO.C,C201*%
X203928629Y-114807999D03*
D21*
X213928630Y-114808000D03*
%TD*%
D19*
%TO.C,H2*%
X217043000Y-99314000D03*
%TD*%
D22*
%TO.C,U1*%
X182796249Y-97885499D03*
D23*
X181526250Y-97885500D03*
X180256250Y-97885500D03*
%TD*%
D24*
%TO.C,K2*%
X141876500Y-107177602D03*
X135876501Y-109177604D03*
X135876501Y-120477599D03*
X147876499Y-120477599D03*
X147876499Y-109177604D03*
%TD*%
D25*
%TO.C,C1*%
X113792000Y-87884000D03*
X113792000Y-95384000D03*
%TD*%
D26*
%TO.C,J1*%
X107185999Y-86757499D03*
D27*
X107186000Y-90717500D03*
X107186000Y-94677500D03*
X107186000Y-98637500D03*
X107186000Y-102597500D03*
X107186000Y-106557500D03*
X107186000Y-110517500D03*
X107186000Y-114477500D03*
%TD*%
M02*
